<?xml version="1.0" encoding="UTF-8" standalone="no"?>
<!-- Created with Inkscape (http://www.inkscape.org/) -->

<svg
   xmlns:dc="http://purl.org/dc/elements/1.1/"
   xmlns:cc="http://creativecommons.org/ns#"
   xmlns:rdf="http://www.w3.org/1999/02/22-rdf-syntax-ns#"
   xmlns:svg="http://www.w3.org/2000/svg"
   xmlns="http://www.w3.org/2000/svg"
   xmlns:sodipodi="http://sodipodi.sourceforge.net/DTD/sodipodi-0.dtd"
   xmlns:inkscape="http://www.inkscape.org/namespaces/inkscape"
   id="svg2"
   version="1.1"
   inkscape:version="0.92.1 r"
   xml:space="preserve"
   width="683.89337"
   height="250.2"
   viewBox="0 0 641.15002 234.5625"
   sodipodi:docname="3ctech_logo.svg"><metadata
     id="metadata8"><rdf:RDF><cc:Work
         rdf:about=""><dc:format>image/svg+xml</dc:format><dc:type
           rdf:resource="http://purl.org/dc/dcmitype/StillImage" /><dc:title /></cc:Work></rdf:RDF></metadata><defs
     id="defs6"><clipPath
       clipPathUnits="userSpaceOnUse"
       id="clipPath128"><path
         d="M 0,0 V 1876 H 5129 V 0 Z"
         id="path130"
         inkscape:connector-curvature="0" /></clipPath><clipPath
       clipPathUnits="userSpaceOnUse"
       id="clipPath134"><path
         d="M 1266.62,199.02 C 839.281,115.949 425.512,395.039 342.438,822.422 c -83.047,427.368 196.019,841.138 623.39,924.178 248.942,48.42 493.142,-26.19 670.182,-181.35 -213.06,236.68 -541.39,359.01 -876.768,293.78 C 250.699,1760.22 -81.4336,1267.8 17.4063,759.238 116.293,250.699 608.668,-81.418 1117.22,17.3906 1452.61,82.6289 1711.17,318.969 1820.11,618.219 1714.05,408.109 1515.56,247.41 1266.62,199.02 Z"
         id="path136"
         inkscape:connector-curvature="0" /></clipPath><linearGradient
       x1="0"
       y1="0"
       x2="1"
       y2="0"
       gradientUnits="userSpaceOnUse"
       gradientTransform="matrix(1820.11,0,0,-1820.11,0,938.222)"
       spreadMethod="pad"
       id="linearGradient138"><stop
         style="stop-opacity:1;stop-color:#b6dc17"
         offset="0"
         id="stop140" /><stop
         style="stop-opacity:1;stop-color:#38791e"
         offset="0.671642"
         id="stop142" /><stop
         style="stop-opacity:1;stop-color:#38791e"
         offset="1"
         id="stop144" /></linearGradient><clipPath
       clipPathUnits="userSpaceOnUse"
       id="clipPath152"><path
         d="m 1403.92,433.121 c -323.57,-62.902 -636.916,148.488 -699.783,472.055 -62.871,323.594 148.414,636.894 472.023,699.784 188.45,36.62 373.35,-19.91 507.39,-137.35 -161.31,179.21 -409.87,271.81 -663.84,222.46 C 634.664,1615.21 383.184,1242.38 458.043,857.32 532.859,472.25 905.723,220.801 1290.78,295.648 1544.72,345 1740.49,524 1822.99,750.57 1742.67,591.48 1592.4,469.781 1403.92,433.121 Z"
         id="path154"
         inkscape:connector-curvature="0" /></clipPath><linearGradient
       x1="0"
       y1="0"
       x2="1"
       y2="0"
       gradientUnits="userSpaceOnUse"
       gradientTransform="matrix(1378.13,0,0,-1378.13,444.858,992.861)"
       spreadMethod="pad"
       id="linearGradient156"><stop
         style="stop-opacity:1;stop-color:#b6dc17"
         offset="0"
         id="stop158" /><stop
         style="stop-opacity:1;stop-color:#38791e"
         offset="0.671642"
         id="stop160" /><stop
         style="stop-opacity:1;stop-color:#38791e"
         offset="1"
         id="stop162" /></linearGradient><clipPath
       clipPathUnits="userSpaceOnUse"
       id="clipPath170"><path
         d="m 1520.49,620.148 c -238.63,-46.347 -469.65,109.434 -516.01,348.082 -46.398,238.57 109.45,469.62 348.01,516 138.99,27.02 275.35,-14.65 374.23,-101.28 -119.02,132.16 -302.27,200.46 -489.55,164.04 C 953.266,1491.81 767.828,1216.89 823.004,932.938 878.191,649 1153.13,463.559 1437.03,518.738 1624.3,555.191 1768.68,687.148 1829.47,854.211 1770.26,736.91 1659.46,647.219 1520.49,620.148 Z"
         id="path172"
         inkscape:connector-curvature="0" /></clipPath><linearGradient
       x1="0"
       y1="0"
       x2="1"
       y2="0"
       gradientUnits="userSpaceOnUse"
       gradientTransform="matrix(1016.19,0,0,-1016.19,813.286,1032.87)"
       spreadMethod="pad"
       id="linearGradient174"><stop
         style="stop-opacity:1;stop-color:#b6dc17"
         offset="0"
         id="stop176" /><stop
         style="stop-opacity:1;stop-color:#38791e"
         offset="0.671642"
         id="stop178" /><stop
         style="stop-opacity:1;stop-color:#38791e"
         offset="1"
         id="stop180" /></linearGradient></defs><sodipodi:namedview
     pagecolor="#ffffff"
     bordercolor="#666666"
     borderopacity="1"
     objecttolerance="10"
     gridtolerance="10"
     guidetolerance="10"
     inkscape:pageopacity="0"
     inkscape:pageshadow="2"
     inkscape:window-width="2560"
     inkscape:window-height="1381"
     id="namedview4"
     showgrid="false"
     inkscape:zoom="1.0449972"
     inkscape:cx="482.7791"
     inkscape:cy="136.2924"
     inkscape:window-x="1920"
     inkscape:window-y="30"
     inkscape:window-maximized="1"
     inkscape:current-layer="g10" /><g
     id="g10"
     inkscape:groupmode="layer"
     inkscape:label="ink_ext_XXXXXX"
     transform="matrix(1.25,0,0,-1.25,0,234.5625)"><path
       inkscape:connector-curvature="0"
       id="path14"
       style="fill:#313638;fill-opacity:1;fill-rule:nonzero;stroke:none"
       d="m 194.7,50.0109 h 1.36 l 0.022,-0.5339 c 0,-2.0918 -1.309,-3.1411 -3.918,-3.1411 -1.682,0 -2.789,0.3289 -3.329,0.9942 -0.543,0.6629 -0.81,2.023 -0.81,4.0847 0,1.9411 0.273,3.2532 0.823,3.9473 0.548,0.691 1.591,1.0367 3.133,1.0367 1.514,0 2.549,-0.2367 3.099,-0.7008 0.55,-0.466 0.825,-1.3371 0.825,-2.6218 h -1.363 l -0.004,0.25 c 0,0.7558 -0.18,1.2547 -0.539,1.5019 -0.357,0.2489 -1.067,0.3739 -2.126,0.3739 -1.029,0 -1.691,-0.2372 -1.982,-0.7141 -0.293,-0.4731 -0.435,-1.5418 -0.435,-3.202 0,-1.6211 0.164,-2.6507 0.494,-3.0929 0.341,-0.441 1.122,-0.6692 2.348,-0.6692 1.04,0 1.699,0.1524 1.981,0.4391 0.279,0.2859 0.421,0.9711 0.421,2.048" /><path
       inkscape:connector-curvature="0"
       id="path16"
       style="fill:#313638;fill-opacity:1;fill-rule:nonzero;stroke:none"
       d="m 203.817,55.202 c -1.213,0 -1.963,-0.2051 -2.255,-0.6161 -0.294,-0.414 -0.44,-1.4839 -0.44,-3.2199 0,-1.7351 0.146,-2.807 0.44,-3.2211 0.292,-0.4117 1.042,-0.6211 2.255,-0.6211 1.218,0 1.973,0.2094 2.27,0.6211 0.285,0.4141 0.431,1.486 0.431,3.2211 0,1.736 -0.146,2.8059 -0.431,3.2199 -0.297,0.411 -1.052,0.6161 -2.27,0.6161 z m 0,1.1968 c 1.727,0 2.845,-0.3156 3.357,-0.9429 0.515,-0.6278 0.772,-1.9879 0.772,-4.0899 0,-2.0969 -0.257,-3.466 -0.772,-4.091 -0.512,-0.627 -1.63,-0.9391 -3.357,-0.9391 -1.721,0 -2.834,0.3121 -3.349,0.9391 -0.514,0.625 -0.774,1.9941 -0.774,4.091 0,2.102 0.26,3.4621 0.774,4.0899 0.515,0.6273 1.628,0.9429 3.349,0.9429" /><path
       inkscape:connector-curvature="0"
       id="path18"
       style="fill:#313638;fill-opacity:1;fill-rule:nonzero;stroke:none"
       d="m 212.059,56.2551 h 1.321 l -0.037,-1.327 0.037,-0.0332 c 0.413,1 1.448,1.5039 3.1,1.5039 1.33,0 2.227,-0.2437 2.698,-0.7379 0.471,-0.491 0.705,-1.43 0.705,-2.823 v -6.3598 h -1.37 v 6.6059 c 0,0.8379 -0.155,1.4019 -0.459,1.689 -0.304,0.2891 -0.89,0.429 -1.759,0.429 -1.909,0 -2.865,-0.945 -2.865,-2.8438 v -5.8801 h -1.371 v 9.777" /><path
       inkscape:connector-curvature="0"
       id="path20"
       style="fill:#313638;fill-opacity:1;fill-rule:nonzero;stroke:none"
       d="m 224.345,56.2551 h 1.322 l -0.037,-1.327 0.037,-0.0332 c 0.418,1 1.443,1.5039 3.094,1.5039 1.332,0 2.235,-0.2437 2.701,-0.7379 0.471,-0.491 0.712,-1.43 0.712,-2.823 v -6.3598 h -1.377 v 6.6059 c 0,0.8379 -0.155,1.4019 -0.454,1.689 -0.305,0.2891 -0.893,0.429 -1.76,0.429 -1.915,0 -2.867,-0.945 -2.867,-2.8438 v -5.8801 h -1.371 v 9.777" /><path
       inkscape:connector-curvature="0"
       id="path22"
       style="fill:#313638;fill-opacity:1;fill-rule:nonzero;stroke:none"
       d="m 243.114,52.2141 -0.009,0.4589 c 0,1.05 -0.163,1.7411 -0.496,2.0571 -0.336,0.3148 -1.049,0.4719 -2.148,0.4719 -1.104,0 -1.821,-0.1821 -2.148,-0.554 -0.325,-0.3742 -0.492,-1.1851 -0.492,-2.4339 z m 0,-2.786 h 1.395 l 0.003,-0.3609 c 0,-1.0113 -0.289,-1.7172 -0.876,-2.1274 -0.592,-0.3988 -1.623,-0.6039 -3.094,-0.6039 -1.716,0 -2.837,0.325 -3.376,0.9879 -0.538,0.6563 -0.805,2.041 -0.805,4.1461 0,1.9481 0.267,3.2582 0.809,3.9242 0.541,0.668 1.594,1.0047 3.165,1.0047 1.715,0 2.839,-0.2918 3.373,-0.8707 0.529,-0.584 0.801,-1.8101 0.801,-3.6742 v -0.768 h -6.707 c 0,-1.5289 0.155,-2.5078 0.471,-2.9277 0.314,-0.4184 1.052,-0.6344 2.205,-0.6344 1.101,0 1.814,0.1043 2.144,0.3051 0.329,0.2012 0.492,0.625 0.492,1.2891 v 0.3101" /><path
       inkscape:connector-curvature="0"
       id="path24"
       style="fill:#313638;fill-opacity:1;fill-rule:nonzero;stroke:none"
       d="m 255.053,50.0109 h 1.372 l 0.02,-0.5339 c 0,-2.0918 -1.312,-3.1411 -3.926,-3.1411 -1.677,0 -2.787,0.3289 -3.325,0.9942 -0.542,0.6629 -0.813,2.023 -0.813,4.0847 0,1.9411 0.276,3.2532 0.828,3.9473 0.547,0.691 1.59,1.0367 3.13,1.0367 1.516,0 2.549,-0.2367 3.099,-0.7008 0.547,-0.466 0.832,-1.3371 0.832,-2.6218 h -1.374 l -0.002,0.25 c 0,0.7558 -0.178,1.2547 -0.532,1.5019 -0.359,0.2489 -1.07,0.3739 -2.132,0.3739 -1.03,0 -1.686,-0.2372 -1.98,-0.7141 -0.291,-0.4731 -0.438,-1.5418 -0.438,-3.202 0,-1.6211 0.171,-2.6507 0.504,-3.0929 0.334,-0.441 1.116,-0.6692 2.34,-0.6692 1.048,0 1.706,0.1524 1.985,0.4391 0.28,0.2859 0.412,0.9711 0.412,2.048" /><path
       inkscape:connector-curvature="0"
       id="path26"
       style="fill:#313638;fill-opacity:1;fill-rule:nonzero;stroke:none"
       d="m 265.275,56.2551 v -1.191 h -3.577 v -5.984 c 0,-1.034 0.442,-1.5563 1.323,-1.5563 0.875,0 1.309,0.4692 1.309,1.3942 l 0.018,0.4789 0.014,0.541 h 1.265 l 0.013,-0.7231 c 0,-1.9199 -0.869,-2.8789 -2.615,-2.8789 -1.8,0 -2.699,0.7961 -2.699,2.395 v 6.3332 h -1.297 v 1.191 h 1.297 v 2.364 h 1.372 v -2.364 h 3.577" /><path
       inkscape:connector-curvature="0"
       id="path28"
       style="fill:#313638;fill-opacity:1;fill-rule:nonzero;stroke:none"
       d="m 288.105,50.0109 h 1.362 l 0.02,-0.5339 c 0,-2.0918 -1.309,-3.1411 -3.922,-3.1411 -1.675,0 -2.788,0.3289 -3.322,0.9942 -0.546,0.6629 -0.807,2.023 -0.807,4.0847 0,1.9411 0.268,3.2532 0.82,3.9473 0.546,0.691 1.594,1.0367 3.128,1.0367 1.514,0 2.552,-0.2367 3.1,-0.7008 0.554,-0.466 0.829,-1.3371 0.829,-2.6218 h -1.365 l -0.003,0.25 c 0,0.7558 -0.178,1.2547 -0.538,1.5019 -0.36,0.2489 -1.067,0.3739 -2.136,0.3739 -1.022,0 -1.681,-0.2372 -1.972,-0.7141 -0.292,-0.4731 -0.435,-1.5418 -0.435,-3.202 0,-1.6211 0.167,-2.6507 0.497,-3.0929 0.334,-0.441 1.118,-0.6692 2.345,-0.6692 1.037,0 1.701,0.1524 1.976,0.4391 0.284,0.2859 0.423,0.9711 0.423,2.048" /><path
       inkscape:connector-curvature="0"
       id="path30"
       style="fill:#313638;fill-opacity:1;fill-rule:nonzero;stroke:none"
       d="m 297.226,55.202 c -1.215,0 -1.971,-0.2051 -2.258,-0.6161 -0.292,-0.414 -0.435,-1.4839 -0.435,-3.2199 0,-1.7351 0.143,-2.807 0.435,-3.2211 0.287,-0.4117 1.043,-0.6211 2.258,-0.6211 1.216,0 1.97,0.2094 2.264,0.6211 0.285,0.4141 0.432,1.486 0.432,3.2211 0,1.736 -0.147,2.8059 -0.432,3.2199 -0.294,0.411 -1.048,0.6161 -2.264,0.6161 z m 0,1.1968 c 1.72,0 2.843,-0.3156 3.357,-0.9429 0.512,-0.6278 0.769,-1.9879 0.769,-4.0899 0,-2.0969 -0.257,-3.466 -0.769,-4.091 -0.514,-0.627 -1.637,-0.9391 -3.357,-0.9391 -1.722,0 -2.834,0.3121 -3.351,0.9391 -0.514,0.625 -0.771,1.9941 -0.771,4.091 0,2.102 0.257,3.4621 0.771,4.0899 0.517,0.6273 1.629,0.9429 3.351,0.9429" /><path
       inkscape:connector-curvature="0"
       id="path32"
       style="fill:#313638;fill-opacity:1;fill-rule:nonzero;stroke:none"
       d="m 305.465,56.2551 h 1.372 l -0.027,-1.4719 0.027,-0.0301 c 0.526,1.0981 1.534,1.6457 3.035,1.6457 1.577,0 2.535,-0.5476 2.869,-1.6457 h 0.04 c 0.583,1.0981 1.657,1.6457 3.211,1.6457 2.19,0 3.284,-1.1738 3.284,-3.5269 v -6.3938 h -1.366 v 6.5258 c 0,0.8563 -0.144,1.434 -0.439,1.7391 -0.289,0.307 -0.84,0.459 -1.652,0.459 -1.077,0 -1.808,-0.2122 -2.187,-0.634 -0.384,-0.4282 -0.576,-1.2371 -0.576,-2.434 v -5.6559 h -1.367 v 6.3938 l -0.02,0.4492 c 0,1.257 -0.687,1.8809 -2.053,1.8809 -1.848,0 -2.779,-1.0559 -2.779,-3.168 v -5.5559 h -1.372 v 9.777" /><path
       inkscape:connector-curvature="0"
       id="path34"
       style="fill:#313638;fill-opacity:1;fill-rule:nonzero;stroke:none"
       d="m 327.963,55.202 c -1.093,0 -1.801,-0.245 -2.136,-0.7391 -0.328,-0.493 -0.493,-1.5539 -0.493,-3.177 0,-1.505 0.175,-2.5039 0.528,-3.0058 0.36,-0.502 1.083,-0.7563 2.159,-0.7563 1.03,0 1.706,0.2473 2.036,0.7313 0.326,0.4789 0.491,1.4781 0.491,2.991 0,1.6578 -0.163,2.7359 -0.48,3.223 -0.317,0.4911 -1.017,0.7329 -2.105,0.7329 z m -4.022,1.0531 h 1.368 l -0.066,-1.2352 0.041,-0.0359 c 0.471,0.9441 1.494,1.4148 3.058,1.4148 1.385,0 2.33,-0.3718 2.856,-1.1039 0.517,-0.739 0.781,-2.0937 0.781,-4.0711 0,-1.834 -0.264,-3.1066 -0.789,-3.8199 -0.534,-0.7141 -1.463,-1.068 -2.808,-1.068 -1.536,0 -2.547,0.434 -3.038,1.2922 h -0.035 v -5.3429 h -1.368 v 13.9699" /><path
       inkscape:connector-curvature="0"
       id="path36"
       style="fill:#313638;fill-opacity:1;fill-rule:nonzero;stroke:none"
       d="m 343.711,56.2551 v -9.777 h -1.369 l 0.097,1.275 -0.03,0.0348 c -0.476,-0.9668 -1.484,-1.452 -3.036,-1.452 -2.171,0 -3.253,1.1379 -3.253,3.4161 v 6.5031 h 1.372 V 49.752 c 0,-0.8829 0.137,-1.4782 0.414,-1.7719 0.28,-0.3012 0.823,-0.4563 1.642,-0.4563 1.067,0 1.799,0.2293 2.2,0.6731 0.389,0.4453 0.594,1.2633 0.594,2.4519 v 5.6063 h 1.369" /><path
       inkscape:connector-curvature="0"
       id="path38"
       style="fill:#313638;fill-opacity:1;fill-rule:nonzero;stroke:none"
       d="m 353.183,56.2551 v -1.191 h -3.573 v -5.984 c 0,-1.034 0.434,-1.5563 1.32,-1.5563 0.876,0 1.315,0.4692 1.315,1.3942 l 0.01,0.4789 0.019,0.541 h 1.263 l 0.012,-0.7231 c 0,-1.9199 -0.867,-2.8789 -2.616,-2.8789 -1.796,0 -2.697,0.7961 -2.697,2.395 v 6.3332 h -1.295 v 1.191 h 1.295 v 2.364 h 1.374 v -2.364 h 3.573" /><path
       inkscape:connector-curvature="0"
       id="path40"
       style="fill:#313638;fill-opacity:1;fill-rule:nonzero;stroke:none"
       d="m 363.213,52.2141 -0.007,0.4589 c 0,1.05 -0.17,1.7411 -0.499,2.0571 -0.33,0.3148 -1.043,0.4719 -2.144,0.4719 -1.099,0 -1.817,-0.1821 -2.147,-0.554 -0.329,-0.3742 -0.491,-1.1851 -0.491,-2.4339 z m 0,-2.786 h 1.399 l 0.005,-0.3609 c 0,-1.0113 -0.294,-1.7172 -0.883,-2.1274 -0.588,-0.3988 -1.619,-0.6039 -3.09,-0.6039 -1.714,0 -2.841,0.325 -3.38,0.9879 -0.529,0.6563 -0.799,2.041 -0.799,4.1461 0,1.9481 0.27,3.2582 0.804,3.9242 0.544,0.668 1.596,1.0047 3.17,1.0047 1.714,0 2.842,-0.2918 3.371,-0.8707 0.534,-0.584 0.802,-1.8101 0.802,-3.6742 v -0.768 h -6.71 c 0,-1.5289 0.16,-2.5078 0.474,-2.9277 0.314,-0.4184 1.048,-0.6344 2.21,-0.6344 1.096,0 1.809,0.1043 2.139,0.3051 0.326,0.2012 0.488,0.625 0.488,1.2891 v 0.3101" /><path
       inkscape:connector-curvature="0"
       id="path42"
       style="fill:#313638;fill-opacity:1;fill-rule:nonzero;stroke:none"
       d="m 388.042,50.0109 h 1.36 l 0.023,-0.5339 c 0,-2.0918 -1.309,-3.1411 -3.923,-3.1411 -1.681,0 -2.791,0.3289 -3.325,0.9942 -0.536,0.6629 -0.815,2.023 -0.815,4.0847 0,1.9411 0.281,3.2532 0.827,3.9473 0.546,0.691 1.594,1.0367 3.133,1.0367 1.511,0 2.544,-0.2367 3.094,-0.7008 0.554,-0.466 0.832,-1.3371 0.832,-2.6218 h -1.366 l -0.006,0.25 c 0,0.7558 -0.179,1.2547 -0.535,1.5019 -0.355,0.2489 -1.069,0.3739 -2.134,0.3739 -1.024,0 -1.679,-0.2372 -1.975,-0.7141 -0.293,-0.4731 -0.434,-1.5418 -0.434,-3.202 0,-1.6211 0.164,-2.6507 0.496,-3.0929 0.337,-0.441 1.117,-0.6692 2.348,-0.6692 1.038,0 1.699,0.1524 1.978,0.4391 0.278,0.2859 0.422,0.9711 0.422,2.048" /><path
       inkscape:connector-curvature="0"
       id="path44"
       style="fill:#313638;fill-opacity:1;fill-rule:nonzero;stroke:none"
       d="m 397.156,55.202 c -1.212,0 -1.964,-0.2051 -2.249,-0.6161 -0.298,-0.414 -0.44,-1.4839 -0.44,-3.2199 0,-1.7351 0.142,-2.807 0.44,-3.2211 0.285,-0.4117 1.037,-0.6211 2.249,-0.6211 1.22,0 1.976,0.2094 2.266,0.6211 0.294,0.4141 0.438,1.486 0.438,3.2211 0,1.736 -0.144,2.8059 -0.438,3.2199 -0.29,0.411 -1.046,0.6161 -2.266,0.6161 z m 0,1.1968 c 1.725,0 2.849,-0.3156 3.358,-0.9429 0.513,-0.6278 0.779,-1.9879 0.779,-4.0899 0,-2.0969 -0.266,-3.466 -0.779,-4.091 -0.509,-0.627 -1.633,-0.9391 -3.358,-0.9391 -1.717,0 -2.834,0.3121 -3.352,0.9391 -0.512,0.625 -0.766,1.9941 -0.766,4.091 0,2.102 0.254,3.4621 0.766,4.0899 0.518,0.6273 1.635,0.9429 3.352,0.9429" /><path
       inkscape:connector-curvature="0"
       id="path46"
       style="fill:#313638;fill-opacity:1;fill-rule:nonzero;stroke:none"
       d="m 405.403,56.2551 h 1.368 l -0.029,-1.4719 0.029,-0.0301 c 0.524,1.0981 1.542,1.6457 3.039,1.6457 1.575,0 2.534,-0.5476 2.873,-1.6457 h 0.035 c 0.583,1.0981 1.651,1.6457 3.207,1.6457 2.196,0 3.294,-1.1738 3.294,-3.5269 v -6.3938 h -1.378 v 6.5258 c 0,0.8563 -0.142,1.434 -0.434,1.7391 -0.297,0.307 -0.844,0.459 -1.652,0.459 -1.079,0 -1.806,-0.2122 -2.195,-0.634 -0.374,-0.4282 -0.566,-1.2371 -0.566,-2.434 v -5.6559 h -1.373 v 6.3938 l -0.022,0.4492 c 0,1.257 -0.683,1.8809 -2.05,1.8809 -1.851,0 -2.778,-1.0559 -2.778,-3.168 v -5.5559 h -1.368 v 9.777" /><path
       inkscape:connector-curvature="0"
       id="path48"
       style="fill:#313638;fill-opacity:1;fill-rule:nonzero;stroke:none"
       d="m 423.873,56.2551 h 1.374 l -0.032,-1.4719 0.032,-0.0301 c 0.522,1.0981 1.534,1.6457 3.036,1.6457 1.576,0 2.532,-0.5476 2.869,-1.6457 h 0.045 c 0.583,1.0981 1.651,1.6457 3.202,1.6457 2.193,0 3.293,-1.1738 3.293,-3.5269 v -6.3938 h -1.372 v 6.5258 c 0,0.8563 -0.144,1.434 -0.442,1.7391 -0.291,0.307 -0.845,0.459 -1.648,0.459 -1.078,0 -1.808,-0.2122 -2.191,-0.634 -0.381,-0.4282 -0.573,-1.2371 -0.573,-2.434 V 46.4781 H 430.1 v 6.3938 l -0.023,0.4492 c 0,1.257 -0.684,1.8809 -2.054,1.8809 -1.855,0 -2.776,-1.0559 -2.776,-3.168 v -5.5559 h -1.374 v 9.777" /><path
       inkscape:connector-curvature="0"
       id="path50"
       style="fill:#313638;fill-opacity:1;fill-rule:nonzero;stroke:none"
       d="m 449.941,56.2551 v -9.777 h -1.368 l 0.093,1.275 -0.025,0.0348 c -0.477,-0.9668 -1.485,-1.452 -3.037,-1.452 -2.173,0 -3.251,1.1379 -3.251,3.4161 v 6.5031 h 1.366 V 49.752 c 0,-0.8829 0.14,-1.4782 0.42,-1.7719 0.278,-0.3012 0.822,-0.4563 1.635,-0.4563 1.064,0 1.8,0.2293 2.201,0.6731 0.393,0.4453 0.598,1.2633 0.598,2.4519 v 5.6063 h 1.368" /><path
       inkscape:connector-curvature="0"
       id="path52"
       style="fill:#313638;fill-opacity:1;fill-rule:nonzero;stroke:none"
       d="m 454.466,56.2551 h 1.321 l -0.035,-1.327 0.035,-0.0332 c 0.415,1 1.452,1.5039 3.101,1.5039 1.324,0 2.233,-0.2437 2.697,-0.7379 0.474,-0.491 0.706,-1.43 0.706,-2.823 v -6.3598 h -1.372 v 6.6059 c 0,0.8379 -0.148,1.4019 -0.451,1.689 -0.308,0.2891 -0.896,0.429 -1.76,0.429 -1.913,0 -2.867,-0.945 -2.867,-2.8438 v -5.8801 h -1.375 v 9.777" /><path
       inkscape:connector-curvature="0"
       id="path54"
       style="fill:#313638;fill-opacity:1;fill-rule:nonzero;stroke:none"
       d="m 468.126,56.2551 v -9.777 h -1.372 v 9.777 z m 0,4.1898 V 58.832 h -1.372 v 1.6129 h 1.372" /><path
       inkscape:connector-curvature="0"
       id="path56"
       style="fill:#313638;fill-opacity:1;fill-rule:nonzero;stroke:none"
       d="m 478.907,50.0109 h 1.364 l 0.02,-0.5339 c 0,-2.0918 -1.31,-3.1411 -3.919,-3.1411 -1.681,0 -2.791,0.3289 -3.332,0.9942 -0.539,0.6629 -0.811,2.023 -0.811,4.0847 0,1.9411 0.277,3.2532 0.824,3.9473 0.551,0.691 1.593,1.0367 3.135,1.0367 1.514,0 2.544,-0.2367 3.098,-0.7008 0.551,-0.466 0.831,-1.3371 0.831,-2.6218 h -1.365 l -0.007,0.25 c 0,0.7558 -0.18,1.2547 -0.54,1.5019 -0.355,0.2489 -1.066,0.3739 -2.129,0.3739 -1.026,0 -1.684,-0.2372 -1.973,-0.7141 -0.297,-0.4731 -0.442,-1.5418 -0.442,-3.202 0,-1.6211 0.167,-2.6507 0.502,-3.0929 0.331,-0.441 1.117,-0.6692 2.342,-0.6692 1.043,0 1.7,0.1524 1.98,0.4391 0.28,0.2859 0.422,0.9711 0.422,2.048" /><path
       inkscape:connector-curvature="0"
       id="path58"
       style="fill:#313638;fill-opacity:1;fill-rule:nonzero;stroke:none"
       d="m 487.79,51.3211 c -1.046,0 -1.728,-0.118 -2.042,-0.3473 -0.313,-0.2347 -0.473,-0.7308 -0.473,-1.4949 0,-0.7859 0.156,-1.3109 0.47,-1.566 0.311,-0.2539 0.944,-0.3891 1.901,-0.3891 1.925,0 2.885,0.6133 2.885,1.8442 0,0.7679 -0.186,1.289 -0.559,1.5558 -0.375,0.2621 -1.105,0.3973 -2.182,0.3973 z m -2.201,2.2019 h -1.357 c 0,1.1329 0.247,1.8961 0.739,2.2891 0.489,0.3879 1.447,0.5867 2.882,0.5867 1.555,0 2.606,-0.2437 3.152,-0.725 0.55,-0.4738 0.824,-1.3867 0.824,-2.7386 v -6.4571 h -1.378 l 0.11,1.05 -0.024,0.0129 c -0.521,-0.8058 -1.577,-1.2051 -3.166,-1.2051 -2.35,0 -3.529,0.9961 -3.529,2.9813 0,1.1797 0.271,1.9976 0.793,2.4508 0.524,0.448 1.475,0.6769 2.85,0.6769 1.638,0 2.612,-0.3461 2.941,-1.025 l 0.025,0.0129 v 1.1852 c 0,1.1121 -0.141,1.8332 -0.434,2.1652 -0.294,0.3289 -0.932,0.4906 -1.923,0.4906 -1.676,0 -2.509,-0.4906 -2.509,-1.4679 0,-0.05 0,-0.143 0.004,-0.2829" /><path
       inkscape:connector-curvature="0"
       id="path60"
       style="fill:#313638;fill-opacity:1;fill-rule:nonzero;stroke:none"
       d="m 501.29,56.2551 v -1.191 h -3.572 v -5.984 c 0,-1.034 0.437,-1.5563 1.317,-1.5563 0.876,0 1.318,0.4692 1.318,1.3942 l 0.009,0.4789 0.016,0.541 h 1.265 l 0.012,-0.7231 c 0,-1.9199 -0.869,-2.8789 -2.613,-2.8789 -1.795,0 -2.701,0.7961 -2.701,2.395 v 6.3332 h -1.292 v 1.191 h 1.292 v 2.364 h 1.377 v -2.364 h 3.572" /><path
       inkscape:connector-curvature="0"
       id="path62"
       style="fill:#313638;fill-opacity:1;fill-rule:nonzero;stroke:none"
       d="m 511.32,52.2141 -0.007,0.4589 c 0,1.05 -0.169,1.7411 -0.496,2.0571 -0.335,0.3148 -1.05,0.4719 -2.153,0.4719 -1.095,0 -1.813,-0.1821 -2.143,-0.554 -0.329,-0.3742 -0.492,-1.1851 -0.492,-2.4339 z m 0,-2.786 h 1.395 l 0.008,-0.3609 c 0,-1.0113 -0.295,-1.7172 -0.881,-2.1274 -0.592,-0.3988 -1.616,-0.6039 -3.093,-0.6039 -1.713,0 -2.842,0.325 -3.376,0.9879 -0.535,0.6563 -0.803,2.041 -0.803,4.1461 0,1.9481 0.268,3.2582 0.803,3.9242 0.544,0.668 1.6,1.0047 3.171,1.0047 1.714,0 2.837,-0.2918 3.371,-0.8707 0.538,-0.584 0.8,-1.8101 0.8,-3.6742 v -0.768 h -6.708 c 0,-1.5289 0.16,-2.5078 0.476,-2.9277 0.313,-0.4184 1.043,-0.6344 2.204,-0.6344 1.1,0 1.814,0.1043 2.143,0.3051 0.329,0.2012 0.49,0.625 0.49,1.2891 v 0.3101" /><path
       inkscape:connector-curvature="0"
       id="path64"
       style="fill:#313638;fill-opacity:1;fill-rule:nonzero;stroke:none"
       d="m 273.485,61.1621 v -18.5" /><path
       inkscape:connector-curvature="0"
       id="path66"
       style="fill:#313638;fill-opacity:1;fill-rule:nonzero;stroke:none"
       d="m 272.275,42.6621 h 2.41914 v 18.5 H 272.275 Z" /><path
       inkscape:connector-curvature="0"
       id="path68"
       style="fill:#313638;fill-opacity:1;fill-rule:nonzero;stroke:none"
       d="m 373.456,60.209 v -18.5" /><path
       inkscape:connector-curvature="0"
       id="path70"
       style="fill:#313638;fill-opacity:1;fill-rule:nonzero;stroke:none"
       d="m 372.246,41.709 h 2.41992 v 18.5 H 372.246 Z" /><path
       inkscape:connector-curvature="0"
       id="path72"
       style="fill:#313638;fill-opacity:1;fill-rule:nonzero;stroke:none"
       d="m 142.865,103.305 v 9.304 l 2.49,-0.08 c 8.239,0 13.264,0.409 15.043,1.215 1.808,0.801 2.706,3.073 2.706,6.82 0,4.176 -0.813,6.753 -2.415,7.725 -1.61,0.978 -5.866,1.465 -12.745,1.465 -6.239,0 -10.177,-0.529 -11.813,-1.597 -1.623,-1.062 -2.432,-3.669 -2.432,-7.81 v -1.854 H 119.48 v 2.358 c 0,7.373 1.903,12.3 5.732,14.782 3.831,2.485 11.396,3.727 22.687,3.727 11.375,0 19.184,-1.172 23.431,-3.52 4.255,-2.345 6.37,-6.683 6.37,-13.006 0,-8.729 -4.289,-13.633 -12.874,-14.713 v -0.324 c 9.339,-0.831 14.019,-5.428 14.019,-13.7829 0,-7.4309 -2.058,-12.4219 -6.199,-14.9789 -4.139,-2.5622 -12.202,-3.8372 -24.181,-3.8372 -11.76,0 -19.757,1.275 -23.981,3.8321 -4.231,2.557 -6.345,7.3937 -6.345,14.5054 l 0.083,3.5176 h 14.395 c 0.115,-1.3847 0.181,-2.2199 0.181,-2.4968 0,-4.3434 0.891,-7.0602 2.695,-8.1352 1.789,-1.0801 6.302,-1.6242 13.533,-1.6242 6.632,0 10.818,0.589 12.578,1.7621 1.755,1.1746 2.642,3.9859 2.642,8.4355 0,3.4055 -0.805,5.6425 -2.415,6.7255 -1.61,1.081 -4.943,1.622 -10.003,1.622 h -6.42 l -2.543,-0.037" /><path
       inkscape:connector-curvature="0"
       id="path74"
       style="fill:#313638;fill-opacity:1;fill-rule:nonzero;stroke:none"
       d="m 145.408,102.516 h 6.42 c 6.058,0 8.535,-0.806 9.544,-1.482 1.358,-0.913 2.048,-2.9438 2.048,-6.0395 0,-4.1332 -0.767,-6.7406 -2.277,-7.7484 -1.109,-0.7371 -4.112,-1.6231 -12.117,-1.6231 -8.776,0 -11.973,0.818 -13.109,1.502 -1.521,0.9102 -2.292,3.407 -2.292,7.4313 0,0.3039 -0.058,1.0699 -0.184,2.5664 l -0.063,0.7562 h -15.961 l -0.021,-0.8062 -0.084,-3.5145 c 0,-7.4133 2.271,-12.5301 6.744,-15.2371 4.394,-2.6563 12.38,-3.9492 24.409,-3.9492 12.256,0 20.308,1.298 24.614,3.957 4.375,2.7043 6.592,7.9832 6.592,15.6852 0,8.8189 -4.969,13.7299 -14.77,14.6079 l 0.75,-0.825 v 0.324 l -0.722,-0.818 c 9.022,1.132 13.596,6.358 13.596,15.531 0,6.625 -2.284,11.245 -6.796,13.727 -4.41,2.437 -12.204,3.625 -23.83,3.625 -11.568,0 -19.132,-1.265 -23.136,-3.862 -4.055,-2.624 -6.109,-7.833 -6.109,-15.473 v -3.183 h 15.872 v 2.679 c 0,3.774 0.712,6.239 2.059,7.117 1.023,0.668 3.821,1.464 11.359,1.464 8.348,0 11.306,-0.728 12.315,-1.342 1.32,-0.801 2.019,-3.23 2.019,-7.022 0,-3.373 -0.747,-5.416 -2.215,-6.067 -1.156,-0.521 -4.638,-1.142 -14.708,-1.142 0.027,0 -2.463,0.079 -2.463,0.079 l -0.853,0.025 v -10.993 l 0.838,0.012 c 0,0 2.544,0.038 2.531,0.038 z m -1.717,0.789 v 9.304 l -0.854,-0.826 2.491,-0.08 c 8.465,0 13.496,0.422 15.411,1.285 2.143,0.955 3.19,3.432 3.19,7.576 0,4.525 -0.922,7.284 -2.814,8.434 -1.757,1.065 -6.066,1.581 -13.171,1.581 -6.466,0 -10.478,-0.566 -12.263,-1.731 -1.889,-1.237 -2.808,-4.018 -2.808,-8.501 v -1.854 l 0.826,0.826 H 119.48 l 0.826,-0.826 v 2.358 c 0,7.047 1.801,11.786 5.354,14.087 3.675,2.387 11.157,3.596 22.239,3.596 11.183,0 18.933,-1.152 23.032,-3.42 4,-2.202 5.944,-6.218 5.944,-12.28 0,-8.32 -3.974,-12.865 -12.151,-13.892 L 164,108.85 v -1.809 l 0.754,-0.068 c 8.926,-0.795 13.266,-5.033 13.266,-12.9589 0,-7.0942 -1.954,-11.8981 -5.808,-14.2789 -3.983,-2.4622 -11.972,-3.7114 -23.747,-3.7114 -11.558,0 -19.482,1.2492 -23.553,3.7114 -3.948,2.3859 -5.947,7.0328 -5.947,13.8003 0,-0.0203 0.084,3.4973 0.084,3.4973 l -0.827,-0.8058 h 14.395 l -0.824,0.7582 c 0.096,-1.1266 0.18,-2.1629 0.18,-2.4289 0,-4.7079 1.014,-7.6012 3.094,-8.8442 1.938,-1.1711 6.505,-1.7402 13.959,-1.7402 6.853,0 11.116,0.6242 13.035,1.9031 2.026,1.3539 3.01,4.3379 3.01,9.1195 0,3.6797 -0.934,6.1715 -2.777,7.4115 -1.773,1.185 -5.196,1.761 -10.466,1.761 h -6.42 c -0.012,0 -2.555,-0.037 -2.555,-0.037 l 0.838,-0.825" /><path
       inkscape:connector-curvature="0"
       id="path76"
       style="fill:#313638;fill-opacity:1;fill-rule:nonzero;stroke:none"
       d="m 234.91,98.2129 h 14.793 v -2.1781 c 0,-8.7957 -1.954,-14.4797 -5.914,-17.0547 -3.936,-2.577 -12.663,-3.8672 -26.175,-3.8672 -15.338,0 -24.761,2.041 -28.288,6.1152 -3.529,4.0758 -5.298,14.9692 -5.298,32.6949 0,10.435 2.389,17.295 7.173,20.591 4.788,3.282 14.784,4.925 29.996,4.925 11.077,0 18.476,-1.351 22.2,-4.05 3.716,-2.712 5.583,-8.083 5.583,-16.12 l 0.05,-1.437 h -14.788 v 1.624 c 0,4.158 -0.961,6.815 -2.882,7.98 -1.913,1.155 -6.28,1.739 -13.119,1.739 -9.14,0 -14.62,-0.913 -16.468,-2.732 -1.841,-1.823 -2.752,-7.231 -2.752,-16.224 0,-12.1081 0.819,-19.2776 2.464,-21.5002 1.657,-2.2278 6.986,-3.3407 16.008,-3.3407 7.307,0 12.06,0.6219 14.235,1.8508 2.182,1.2406 3.269,3.9637 3.269,8.1598 l -0.087,2.8242" /><path
       inkscape:connector-curvature="0"
       id="path78"
       style="fill:#313638;fill-opacity:1;fill-rule:nonzero;stroke:none"
       d="m 234.171,95.3887 c 0,-3.8633 -0.959,-6.3653 -2.85,-7.4407 -2.044,-1.155 -6.696,-1.7441 -13.828,-1.7441 -10.835,0 -14.324,1.634 -15.344,3.0059 -1.051,1.4191 -2.302,6.2164 -2.302,21.0092 0,10.874 1.364,14.506 2.508,15.636 1.154,1.137 4.847,2.494 15.886,2.494 8.274,0 11.468,-0.883 12.692,-1.621 1.648,-0.998 2.484,-3.445 2.484,-7.272 v -2.45 h 16.467 l -0.029,0.856 -0.049,1.437 c 0,8.244 -1.992,13.892 -5.921,16.759 -3.911,2.831 -11.331,4.208 -22.688,4.208 -15.519,0 -25.484,-1.657 -30.463,-5.074 -4.999,-3.44 -7.532,-10.594 -7.532,-21.269 0,-18.0929 1.797,-28.9609 5.5,-33.2359 3.726,-4.3062 13.184,-6.4 28.912,-6.4 13.805,0 22.513,1.3109 26.625,4.002 4.234,2.7519 6.29,8.5558 6.29,17.7457 v 3.0039 h -16.47 l 0.025,-0.8512 c 0,0 0.087,-2.8234 0.087,-2.7988 z m 0.739,1.9984 h 14.793 l -0.825,0.8258 v -2.1781 c 0,-8.4657 -1.865,-13.9719 -5.54,-16.361 -3.783,-2.4777 -12.439,-3.7347 -25.724,-3.7347 -15.01,0 -24.316,1.9597 -27.664,5.8269 -3.383,3.909 -5.096,14.7258 -5.096,32.157 0,10.095 2.293,16.796 6.817,19.909 4.627,3.176 14.561,4.782 29.526,4.782 10.844,0 18.148,-1.312 21.716,-3.894 3.476,-2.534 5.241,-7.736 5.241,-15.451 0,-0.03 0.05,-1.467 0.05,-1.467 l 0.826,0.856 h -14.788 l 0.826,-0.826 v 1.624 c 0,4.508 -1.071,7.346 -3.28,8.683 -2.071,1.253 -6.502,1.862 -13.547,1.862 -9.444,0 -15.02,-0.974 -17.047,-2.972 -2.019,-1.995 -2.999,-7.493 -2.999,-16.81 0,-12.4104 0.86,-19.6018 2.628,-21.9924 1.838,-2.4746 7.291,-3.6735 16.67,-3.6735 7.523,0 12.317,0.6399 14.643,1.961 2.447,1.3863 3.687,4.3726 3.687,8.8746 0,0.0254 -0.088,2.8488 -0.088,2.8488 l -0.825,-0.8504" /><path
       inkscape:connector-curvature="0"
       id="path80"
       style="fill:#313638;fill-opacity:1;fill-rule:nonzero;stroke:none"
       d="m 275.553,133.895 v -23.756 h -7.044 v 23.756 h -10.715 v 4.876 h 28.925 v -4.876 h -11.166" /><path
       inkscape:connector-curvature="0"
       id="path82"
       style="fill:#313638;fill-opacity:1;fill-rule:nonzero;stroke:none"
       d="m 298.063,122.223 -0.03,0.795 c 0,1.597 -0.356,2.632 -1.072,3.109 -0.726,0.471 -2.285,0.711 -4.685,0.711 -2.325,0 -3.841,-0.285 -4.535,-0.858 -0.706,-0.574 -1.057,-1.827 -1.057,-3.757 z m -0.049,-5.666 h 6.271 l 0.013,-0.775 c 0,-3.907 -3.818,-5.868 -11.458,-5.868 -5.181,0 -8.576,0.679 -10.178,2.034 -1.597,1.357 -2.394,4.231 -2.394,8.618 0,3.899 0.83,6.519 2.504,7.863 1.679,1.342 4.944,2.014 9.798,2.014 4.656,0 7.771,-0.654 9.36,-1.964 1.579,-1.309 2.368,-3.877 2.368,-7.713 l -0.013,-1.47 h -17.659 c -0.027,-0.444 -0.037,-0.735 -0.037,-0.875 0,-1.964 0.384,-3.268 1.18,-3.924 0.788,-0.654 2.37,-0.98 4.734,-0.98 2.288,0 3.774,0.189 4.471,0.571 0.691,0.384 1.04,1.207 1.04,2.469" /><path
       inkscape:connector-curvature="0"
       id="path84"
       style="fill:#313638;fill-opacity:1;fill-rule:nonzero;stroke:none"
       d="m 325.551,117.797 h 6.221 l -0.012,-0.695 -0.364,-3.039 c -0.769,-2.769 -4.491,-4.149 -11.183,-4.149 -4.907,0 -8.175,0.684 -9.789,2.047 -1.619,1.361 -2.422,4.11 -2.422,8.239 0,4.028 0.803,6.743 2.422,8.141 1.614,1.4 4.763,2.102 9.434,2.102 4.513,0 7.564,-0.51 9.158,-1.527 1.601,-1.013 2.399,-2.949 2.399,-5.793 h -6.188 c 0,2.353 -1.756,3.527 -5.266,3.527 -2.49,0 -4.052,-0.371 -4.69,-1.112 -0.638,-0.743 -0.954,-2.562 -0.954,-5.463 0,-2.809 0.35,-4.568 1.053,-5.288 0.69,-0.719 2.41,-1.081 5.14,-1.081 2.139,0 3.517,0.248 4.131,0.744 0.61,0.496 0.91,1.611 0.91,3.347" /><path
       inkscape:connector-curvature="0"
       id="path86"
       style="fill:#313638;fill-opacity:1;fill-rule:nonzero;stroke:none"
       d="m 342.052,136.636 v -9.768 l 0.135,-0.021 c 1.163,2.395 3.836,3.596 8.022,3.596 6.095,0 9.145,-2.229 9.145,-6.679 v -13.625 h -6.271 v 12.962 c 0,2.364 -1.555,3.549 -4.655,3.549 -4.251,0 -6.376,-1.708 -6.376,-5.129 v -11.382 h -6.271 v 26.497 h 6.271" /><path
       inkscape:connector-curvature="0"
       id="path88"
       style="fill:#313638;fill-opacity:1;fill-rule:nonzero;stroke:none"
       d="m 364.906,130.18 h 6.215 l -0.247,-3.38 0.142,-0.015 c 1.21,2.434 3.934,3.658 8.172,3.658 6.164,0 9.242,-2.221 9.242,-6.656 v -13.648 h -6.266 v 12.829 l -0.137,1.405 c -0.295,1.519 -1.814,2.277 -4.572,2.277 -4.186,0 -6.282,-1.541 -6.282,-4.622 v -11.889 h -6.267 v 20.041" /><path
       inkscape:connector-curvature="0"
       id="path90"
       style="fill:#313638;fill-opacity:1;fill-rule:nonzero;stroke:none"
       d="m 405.398,126.65 c -2.594,0 -4.246,-0.357 -4.959,-1.082 -0.71,-0.721 -1.062,-2.407 -1.062,-5.051 0,-3.029 0.339,-4.922 1.008,-5.679 0.673,-0.755 2.354,-1.132 5.043,-1.132 2.596,0 4.241,0.396 4.914,1.198 0.689,0.798 1.029,2.719 1.029,5.757 0,2.565 -0.357,4.201 -1.064,4.919 -0.708,0.713 -2.344,1.07 -4.909,1.07 z m 0.06,3.793 c 5.029,0 8.322,-0.617 9.886,-1.862 1.561,-1.237 2.346,-3.849 2.346,-7.838 0,-4.448 -0.762,-7.364 -2.289,-8.753 -1.526,-1.385 -4.744,-2.076 -9.644,-2.076 -5.325,0 -8.766,0.641 -10.337,1.931 -1.574,1.29 -2.357,4.121 -2.357,8.499 0,4.214 0.77,6.951 2.312,8.21 1.549,1.26 4.901,1.889 10.083,1.889" /><path
       inkscape:connector-curvature="0"
       id="path92"
       style="fill:#313638;fill-opacity:1;fill-rule:nonzero;stroke:none"
       d="m 422.341,110.139 h 6.26484 v 26.4977 H 422.341 Z" /><path
       inkscape:connector-curvature="0"
       id="path94"
       style="fill:#313638;fill-opacity:1;fill-rule:nonzero;stroke:none"
       d="m 445.588,126.65 c -2.595,0 -4.246,-0.357 -4.955,-1.082 -0.711,-0.721 -1.067,-2.407 -1.067,-5.051 0,-3.029 0.336,-4.922 1.011,-5.679 0.667,-0.755 2.349,-1.132 5.04,-1.132 2.603,0 4.241,0.396 4.923,1.198 0.685,0.798 1.022,2.719 1.022,5.757 0,2.565 -0.357,4.201 -1.066,4.919 -0.708,0.713 -2.342,1.07 -4.908,1.07 z m 0.057,3.793 c 5.032,0 8.332,-0.617 9.888,-1.862 1.567,-1.237 2.346,-3.849 2.346,-7.838 0,-4.448 -0.759,-7.364 -2.286,-8.753 -1.527,-1.385 -4.742,-2.076 -9.647,-2.076 -5.317,0 -8.767,0.641 -10.34,1.931 -1.571,1.29 -2.351,4.121 -2.351,8.499 0,4.214 0.765,6.951 2.312,8.21 1.542,1.26 4.899,1.889 10.078,1.889" /><path
       inkscape:connector-curvature="0"
       id="path96"
       style="fill:#313638;fill-opacity:1;fill-rule:nonzero;stroke:none"
       d="m 473.543,126.65 c -2.402,0 -3.945,-0.374 -4.629,-1.123 -0.688,-0.747 -1.027,-2.454 -1.027,-5.115 0,-2.827 0.339,-4.633 1.027,-5.418 0.684,-0.786 2.249,-1.175 4.716,-1.175 2.466,0 4.056,0.402 4.791,1.204 0.727,0.806 1.088,2.59 1.088,5.347 0,2.646 -0.361,4.36 -1.088,5.125 -0.735,0.771 -2.354,1.155 -4.878,1.155 z m 12.334,3.53 v -20.416 c 0,-3.269 -0.858,-5.514 -2.585,-6.731 -1.719,-1.213 -4.894,-1.822 -9.521,-1.822 -4.477,0 -7.481,0.462 -8.984,1.385 -1.511,0.923 -2.262,2.751 -2.262,5.48 h 6.052 c 0,-1.306 0.318,-2.148 0.955,-2.519 0.639,-0.372 2.061,-0.557 4.254,-0.557 3.878,0 5.817,1.232 5.817,3.7 v 4.5 l -0.132,0.023 c -1.113,-2.128 -3.659,-3.196 -7.643,-3.196 -3.947,0 -6.641,0.736 -8.088,2.205 -1.449,1.464 -2.17,4.208 -2.17,8.222 0,3.779 0.721,6.384 2.17,7.828 1.447,1.439 4.067,2.161 7.867,2.161 4.154,0 6.873,-1.193 8.162,-3.575 h 0.138 l -0.304,3.312 h 6.274" /><path
       inkscape:connector-curvature="0"
       id="path98"
       style="fill:#313638;fill-opacity:1;fill-rule:nonzero;stroke:none"
       d="m 512.92,130.18 -6.847,-21.316 c -0.969,-3.02 -2.159,-5.049 -3.589,-6.093 -1.436,-1.041 -3.723,-1.56 -6.863,-1.56 -0.711,0 -1.449,0.032 -2.211,0.103 v 3.545 c 0.541,-0.033 0.995,-0.048 1.362,-0.048 2.663,0 4.343,1.776 5.052,5.328 h -3.195 l -8.545,20.041 h 6.713 l 3.278,-8.491 1.636,-4.256 c 0.088,-0.28 0.348,-0.993 0.764,-2.138 l 0.791,-2.115 h 0.139 l 0.574,2.115 c 0.292,1.088 0.482,1.807 0.572,2.138 l 1.283,4.256 2.508,8.491 h 6.578" /><path
       inkscape:connector-curvature="0"
       id="path100"
       style="fill:#313638;fill-opacity:1;fill-rule:nonzero;stroke:none"
       d="m 290.959,95.7055 h -6.725 c -0.03,0.2672 -0.05,0.459 -0.05,0.5867 -0.16,1.6109 -0.612,2.6238 -1.357,3.0359 -0.749,0.4094 -2.499,0.6188 -5.264,0.6188 -3.257,0 -5.388,-0.2379 -6.385,-0.7196 -1.003,-0.4707 -1.507,-1.4714 -1.507,-2.9976 0,-1.8059 0.409,-2.8938 1.223,-3.2578 0.812,-0.3668 3.506,-0.6465 8.077,-0.8387 5.403,-0.2367 8.9,-0.8449 10.479,-1.8305 1.583,-0.9804 2.383,-3.0136 2.383,-6.1097 0,-3.8032 -0.931,-6.268 -2.8,-7.3809 -1.855,-1.1152 -5.952,-1.668 -12.296,-1.668 -5.704,0 -9.489,0.545 -11.362,1.643 -1.865,1.0879 -2.801,3.3059 -2.801,6.6488 l -0.025,1.0493 h 6.692 l 0.035,-0.6133 c 0,-2.0137 0.442,-3.2481 1.323,-3.6989 0.883,-0.4492 3.293,-0.6769 7.244,-0.6769 3.079,0 5.039,0.2539 5.892,0.775 0.853,0.5199 1.272,1.7199 1.272,3.593 0,1.3839 -0.324,2.3078 -0.968,2.7621 -0.648,0.4539 -2.038,0.7328 -4.181,0.8277 l -3.796,0.1902 c -5.738,0.2661 -9.4,0.895 -10.994,1.8879 -1.593,0.9985 -2.394,3.1328 -2.394,6.4059 0,3.3504 0.965,5.5771 2.887,6.6901 1.918,1.112 5.758,1.672 11.508,1.672 5.458,0 9.13,-0.512 11.021,-1.529 1.901,-1.024 2.849,-3.0112 2.849,-5.9749 l 0.02,-1.0906" /><path
       inkscape:connector-curvature="0"
       id="path102"
       style="fill:#313638;fill-opacity:1;fill-rule:nonzero;stroke:none"
       d="m 306.989,91.9172 c -2.53,0 -4.138,-0.3625 -4.827,-1.0832 -0.691,-0.7238 -1.03,-2.4074 -1.03,-5.052 0,-3.0281 0.321,-4.9218 0.98,-5.675 0.647,-0.7601 2.29,-1.139 4.905,-1.139 2.532,0 4.133,0.4011 4.792,1.2019 0.663,0.7961 0.997,2.7141 0.997,5.7602 0,2.559 -0.347,4.1976 -1.037,4.9168 -0.684,0.7129 -2.283,1.0703 -4.78,1.0703 z m 0.057,3.7883 c 4.897,0 8.108,-0.618 9.632,-1.8559 1.521,-1.2398 2.275,-3.8508 2.275,-7.8426 0,-4.45 -0.744,-7.3629 -2.225,-8.748 -1.487,-1.3879 -4.615,-2.0781 -9.395,-2.0781 -5.179,0 -8.528,0.6402 -10.062,1.925 -1.527,1.2953 -2.301,4.1261 -2.301,8.5043 0,4.2128 0.757,6.9449 2.259,8.2074 1.503,1.2601 4.778,1.8879 9.817,1.8879" /><path
       inkscape:connector-curvature="0"
       id="path104"
       style="fill:#313638;fill-opacity:1;fill-rule:nonzero;stroke:none"
       d="m 323.488,75.4051 h 6.10898 v 26.4973 H 323.488 Z" /><path
       inkscape:connector-curvature="0"
       id="path106"
       style="fill:#313638;fill-opacity:1;fill-rule:nonzero;stroke:none"
       d="M 357.607,95.4438 V 75.4051 h -6.111 l 0.348,3.4379 -0.103,0.0191 c -1.19,-2.4539 -3.917,-3.6812 -8.187,-3.6812 -5.763,0 -8.641,2.2671 -8.641,6.807 v 13.4559 h 6.107 V 83.1391 c 0,-1.7071 0.301,-2.825 0.903,-3.3641 0.598,-0.5359 1.85,-0.807 3.741,-0.807 3.889,0 5.832,1.8468 5.832,5.5351 v 10.9407 h 6.111" /><path
       inkscape:connector-curvature="0"
       id="path108"
       style="fill:#313638;fill-opacity:1;fill-rule:nonzero;stroke:none"
       d="m 379.587,95.4438 v -3.6391 h -9.763 V 81.7488 c 0,-1.8758 0.891,-2.8187 2.682,-2.8187 1.955,0 2.931,1.1347 2.931,3.4 l 0.006,0.8039 h 5.18 l -0.016,-1.0078 c 0,-0.9262 -0.032,-1.7192 -0.099,-2.3782 -0.342,-3.0699 -3.223,-4.6039 -8.661,-4.6039 -5.418,0 -8.132,1.968 -8.132,5.909 v 10.7516 h -3.301 v 3.6391 h 3.301 v 4.5031 h 6.109 v -4.5031 h 9.763" /><path
       inkscape:connector-curvature="0"
       id="path110"
       style="fill:#313638;fill-opacity:1;fill-rule:nonzero;stroke:none"
       d="M 389.518,95.4438 V 75.4051 h -6.096 v 20.0387 z m 0,8.5942 v -4.014 h -6.096 v 4.014 h 6.096" /><path
       inkscape:connector-curvature="0"
       id="path112"
       style="fill:#313638;fill-opacity:1;fill-rule:nonzero;stroke:none"
       d="m 406.062,91.9172 c -2.535,0 -4.141,-0.3625 -4.83,-1.0832 -0.693,-0.7238 -1.043,-2.4074 -1.043,-5.052 0,-3.0281 0.334,-4.9218 0.983,-5.675 0.665,-0.7601 2.291,-1.139 4.91,-1.139 2.534,0 4.131,0.4011 4.8,1.2019 0.66,0.7961 0.989,2.7141 0.989,5.7602 0,2.559 -0.341,4.1976 -1.037,4.9168 -0.688,0.7129 -2.278,1.0703 -4.772,1.0703 z m 0.044,3.7883 c 4.908,0 8.119,-0.618 9.636,-1.8559 1.523,-1.2398 2.283,-3.8508 2.283,-7.8426 0,-4.45 -0.742,-7.3629 -2.229,-8.748 -1.487,-1.3879 -4.616,-2.0781 -9.39,-2.0781 -5.18,0 -8.543,0.6402 -10.068,1.925 -1.536,1.2953 -2.29,4.1261 -2.29,8.5043 0,4.2128 0.744,6.9449 2.251,8.2074 1.501,1.2601 4.773,1.8879 9.807,1.8879" /><path
       inkscape:connector-curvature="0"
       id="path114"
       style="fill:#313638;fill-opacity:1;fill-rule:nonzero;stroke:none"
       d="m 422.556,95.4438 h 6.05 l -0.233,-3.375 0.127,-0.0223 c 1.19,2.4394 3.842,3.659 7.966,3.659 6.002,0 9,-2.2196 9,-6.6578 V 75.4051 h -6.105 v 12.8246 l -0.132,1.407 c -0.28,1.5164 -1.767,2.2805 -4.45,2.2805 -4.077,0 -6.116,-1.5422 -6.116,-4.625 V 75.4051 h -6.107 v 20.0387" /><path
       inkscape:connector-curvature="0"
       id="path116"
       style="fill:#313638;fill-opacity:1;fill-rule:nonzero;stroke:none"
       d="m 472.087,89.9285 h -5.95 c -0.036,0.1692 -0.057,0.2961 -0.081,0.3789 -0.12,0.968 -0.475,1.5742 -1.054,1.8114 -0.576,0.2398 -1.975,0.3562 -4.195,0.3562 -3.178,0 -4.77,-0.8078 -4.77,-2.4289 0,-1.1059 0.281,-1.7641 0.838,-1.9731 0.566,-0.2128 2.454,-0.3796 5.688,-0.5039 4.345,-0.173 7.179,-0.6242 8.486,-1.3652 1.314,-0.743 1.973,-2.2598 1.973,-4.559 0,-2.4429 -0.875,-4.1418 -2.619,-5.0867 -1.743,-0.9434 -4.88,-1.4141 -9.401,-1.4141 -4.342,0 -7.314,0.4231 -8.901,1.2789 -1.596,0.85 -2.393,2.4442 -2.393,4.784 l 0.003,0.502 h 6.326 c -0.102,-0.2789 -0.151,-0.502 -0.177,-0.6731 -0.25,-1.782 1.494,-2.6699 5.226,-2.6699 3.861,0 5.785,0.886 5.785,2.65 0,1.693 -1.211,2.5399 -3.62,2.5399 -5.448,0 -9.04,0.4031 -10.769,1.214 -1.731,0.8133 -2.594,2.4973 -2.594,5.0582 0,2.2934 0.789,3.8496 2.367,4.6578 1.577,0.8129 4.6,1.2196 9.096,1.2196 4.23,0 7.089,-0.391 8.543,-1.1778 1.47,-0.7828 2.193,-2.3191 2.193,-4.5992" /><path
       inkscape:connector-curvature="0"
       id="path118"
       style="fill:#313638;fill-opacity:1;fill-rule:nonzero;stroke:none"
       d="M 482.488,94.2313 V 83.373 h 6.249 v -2.2281 h -8.777 v 13.0864 h 2.528" /><path
       inkscape:connector-curvature="0"
       id="path120"
       style="fill:#313638;fill-opacity:1;fill-rule:nonzero;stroke:none"
       d="M 493.542,94.2313 V 83.373 h 6.249 v -2.2281 h -8.78 v 13.0864 h 2.531" /><path
       inkscape:connector-curvature="0"
       id="path122"
       style="fill:#313638;fill-opacity:1;fill-rule:nonzero;stroke:none"
       d="m 510.293,85.8121 h 2.534 V 85.366 c 0,-1.8308 -0.333,-3.009 -1.012,-3.543 -0.676,-0.5332 -2.178,-0.8 -4.494,-0.8 -2.631,0 -4.249,0.4258 -4.847,1.2641 -0.608,0.8469 -0.917,3.1039 -0.917,6.7781 0,2.1653 0.415,3.5821 1.235,4.2657 0.823,0.6812 2.532,1.0226 5.144,1.0226 1.9,0 3.17,-0.2816 3.812,-0.8383 0.638,-0.5636 0.95,-1.6734 0.95,-3.3375 l 0.013,-0.2988 h -2.535 v 0.3406 c 0,0.8567 -0.164,1.4043 -0.494,1.6477 -0.332,0.2418 -1.082,0.3586 -2.255,0.3586 -1.569,0 -2.512,-0.1922 -2.824,-0.5664 -0.322,-0.3789 -0.476,-1.4961 -0.476,-3.3625 0,-2.5071 0.142,-3.991 0.421,-4.4578 0.284,-0.459 1.202,-0.6942 2.754,-0.6942 1.255,0 2.067,0.1352 2.44,0.3903 0.374,0.2589 0.564,0.8199 0.564,1.6929 l -0.013,0.584" /><g
       id="g124"
       transform="scale(0.1)"
       style="fill:#84dd63;fill-opacity:1"><g
         clip-path="url(#clipPath128)"
         id="g126"
         style="fill:#84dd63;fill-opacity:1"><g
           clip-path="url(#clipPath134)"
           id="g132"
           style="fill:#84dd63;fill-opacity:1"><path
             inkscape:connector-curvature="0"
             id="path146"
             style="fill:#84dd63;fill-opacity:1;fill-rule:nonzero;stroke:none"
             d="m 900,0 v 1 h -23 v 1 h -12 v 1 h -11 v 1 h -12 v 1 h -10 v 1 h -8 v 1 h -7 v 1 h -7 v 1 h -8 v 1 h -7 v 1 h -7 v 1 h -5 v 1 h -6 v 1 h -5 v 1 h -6 v 1 h -5 v 1 h -5 v 1 h -6 v 1 h -5 v 1 h -5 v 1 h -4 v 1 h -4 v 1 h -4 v 1 h -4 v 1 h -5 v 1 h -4 v 1 h -4 v 1 h -4 v 1 h -5 v 1 h -3 v 1 h -4 v 1 h -3 v 1 h -4 v 1 h -3 v 1 h -4 v 1 h -3 v 1 h -4 v 1 h -3 v 1 h -4 v 1 h -3 v 1 h -3 v 1 h -4 v 1 h -3 v 1 h -3 v 1 h -3 v 1 h -3 v 1 h -3 v 1 h -3 v 1 h -3 v 1 h -2 v 1 h -3 v 1 h -3 v 1 h -3 v 1 h -3 v 1 h -3 v 1 h -3 v 1 h -3 v 1 h -2 v 1 h -3 v 1 h -2 v 1 h -3 v 1 h -2 v 1 h -3 v 1 h -2 v 1 h -3 v 1 h -3 v 1 h -2 v 1 h -3 v 1 h -2 v 1 h -3 v 1 h -2 v 1 h -3 v 1 h -2 v 1 h -3 v 1 h -2 v 1 h -2 v 1 h -2 v 1 h -2 v 1 h -3 v 1 h -2 v 1 h -2 v 1 h -2 v 1 h -2 v 1 h -3 v 1 h -2 v 1 h -2 v 1 h -2 v 1 h -2 v 1 h -3 v 1 h -2 v 1 h -2 v 1 h -2 v 1 h -2 v 1 h -2 v 1 h -2 v 1 h -2 v 1 h -2 v 1 h -2 v 1 h -2 v 1 h -2 v 1 h -2 v 1 h -2 v 1 h -2 v 1 h -2 v 1 h -2 v 1 h -2 v 1 h -1 v 1 h -2 v 1 h -2 v 1 h -2 v 1 h -2 v 1 h -2 v 1 h -2 v 1 h -2 v 1 h -2 v 1 h -1 v 1 h -2 v 1 h -2 v 1 h -2 v 1 h -1 v 1 h -2 v 1 h -2 v 1 h -2 v 1 h -1 v 1 h -2 v 1 h -2 v 1 h -1 v 1 h -2 v 1 h -2 v 1 h -2 v 1 h -1 v 1 h -2 v 1 h -2 v 1 h -2 v 1 h -1 v 1 h -2 v 1 h -2 v 1 h -1 v 1 h -2 v 1 h -1 v 1 h -2 v 1 h -1 v 1 h -2 v 1 h -2 v 1 h -1 v 1 h -2 v 1 h -1 v 1 h -2 v 1 h -1 v 1 h -2 v 1 h -1 v 1 h -2 v 1 h -2 v 1 h -1 v 1 h -2 v 1 h -1 v 1 h -2 v 1 h -1 v 1 h -2 v 1 h -1 v 1 h -2 v 1 h -1 v 1 h -2 v 1 h -1 v 1 h -1 v 1 h -2 v 1 h -1 v 1 h -2 v 1 h -1 v 1 h -2 v 1 h -1 v 1 h -1 v 1 h -2 v 1 h -1 v 1 h -2 v 1 h -1 v 1 h -1 v 1 h -2 v 1 h -1 v 1 h -2 v 1 h -1 v 1 h -1 v 1 h -2 v 1 h -1 v 1 h -2 v 1 h -1 v 1 h -1 v 1 h -2 v 1 h -1 v 1 h -1 v 1 h -1 v 1 h -2 v 1 h -1 v 1 h -1 v 1 h -1 v 1 h -2 v 1 h -1 v 1 h -1 v 1 h -2 v 1 h -1 v 1 h -1 v 1 h -1 v 1 h -2 v 1 h -1 v 1 h -1 v 1 h -2 v 1 h -1 v 1 h -1 v 1 h -1 v 1 h -2 v 1 h -1 v 1 h -1 v 1 h -1 v 1 h -2 v 1 h -1 v 1 h -1 v 1 h -1 v 1 h -1 v 1 h -1 v 1 h -2 v 1 h -1 v 1 h -1 v 1 h -1 v 1 h -1 v 1 h -1 v 1 h -2 v 1 h -1 v 1 h -1 v 1 h -1 v 1 h -1 v 1 h -1 v 1 h -1 v 1 h -2 v 1 h -1 v 1 h -1 v 1 h -1 v 1 h -1 v 1 h -1 v 1 h -2 v 1 h -1 v 1 h -1 v 1 h -1 v 1 h -1 v 1 h -1 v 1 h -1 v 1 h -1 v 1 h -1 v 1 h -1 v 1 h -1 v 1 h -2 v 1 h -1 v 1 h -1 v 1 h -1 v 1 h -1 v 1 h -1 v 1 h -1 v 1 h -1 v 1 h -1 v 1 h -1 v 1 h -1 v 1 h -1 v 1 h -1 v 1 h -1 v 1 h -1 v 1 h -1 v 1 h -1 v 1 h -1 v 1 h -1 v 1 h -2 v 1 h -1 v 1 h -1 v 1 h -1 v 1 h -1 v 1 h -1 v 1 h -1 v 1 h -1 v 1 h -1 v 1 h -1 v 1 h -1 v 2 h -1 v 1 h -1 v 1 h -1 v 1 h -1 v 1 h -1 v 1 h -1 v 1 h -1 v 1 h -1 v 1 h -1 v 1 h -1 v 1 h -1 v 1 h -1 v 1 h -1 v 1 h -1 v 1 h -1 v 1 h -1 v 1 h -1 v 1 h -1 v 1 h -1 v 1 h -1 v 1 h -1 v 2 h -1 v 1 h -1 v 1 h -1 v 1 h -1 v 1 h -1 v 1 h -1 v 1 h -1 v 1 h -1 v 1 h -1 v 1 h -1 v 2 h -1 v 1 h -1 v 1 h -1 v 1 h -1 v 1 h -1 v 1 h -1 v 2 h -1 v 1 h -1 v 1 h -1 v 1 h -1 v 1 h -1 v 1 h -1 v 1 h -1 v 2 h -1 v 1 h -1 v 1 h -1 v 1 h -1 v 1 h -1 v 1 h -1 v 2 h -1 v 1 h -1 v 1 h -1 v 1 h -1 v 1 h -1 v 1 h -1 v 2 h -1 v 1 h -1 v 1 h -1 v 1 h -1 v 2 h -1 v 1 h -1 v 1 h -1 v 1 h -1 v 2 h -1 v 1 h -1 v 1 h -1 v 2 h -1 v 1 h -1 v 1 h -1 v 1 h -1 v 2 h -1 v 1 h -1 v 1 h -1 v 1 h -1 v 2 h -1 v 1 h -1 v 1 h -1 v 2 h -1 v 1 h -1 v 1 h -1 v 1 h -1 v 2 h -1 v 1 h -1 v 1 h -1 v 2 h -1 v 1 h -1 v 2 h -1 v 1 h -1 v 1 h -1 v 2 h -1 v 1 h -1 v 2 h -1 v 1 h -1 v 1 h -1 v 2 h -1 v 1 h -1 v 2 h -1 v 1 h -1 v 2 h -1 v 1 h -1 v 1 h -1 v 2 h -1 v 1 h -1 v 2 h -1 v 1 h -1 v 1 h -1 v 2 h -1 v 1 h -1 v 2 h -1 v 1 h -1 v 2 h -1 v 1 h -1 v 2 h -1 v 1 h -1 v 2 h -1 v 2 h -1 v 1 h -1 v 2 h -1 v 1 h -1 v 2 h -1 v 1 h -1 v 2 h -1 v 1 h -1 v 2 h -1 v 2 h -1 v 1 h -1 v 2 h -1 v 1 h -1 v 2 h -1 v 1 h -1 v 2 h -1 v 2 h -1 v 1 h -1 v 2 h -1 v 1 h -1 v 2 h -1 v 2 h -1 v 2 h -1 v 1 h -1 v 2 h -1 v 2 h -1 v 2 h -1 v 2 h -1 v 1 h -1 v 2 h -1 v 2 h -1 v 2 h -1 v 1 h -1 v 2 h -1 v 2 h -1 v 2 h -1 v 1 h -1 v 2 h -1 v 2 h -1 v 2 h -1 v 1 h -1 v 2 h -1 v 2 h -1 v 2 h -1 v 2 h -1 v 2 h -1 v 2 h -1 v 2 h -1 v 2 h -1 v 2 h -1 v 2 h -1 v 2 h -1 v 2 h -1 v 2 h -1 v 2 h -1 v 2 h -1 v 2 h -1 v 2 h -1 v 2 h -1 v 2 h -1 v 2 h -1 v 2 h -1 v 2 h -1 v 2 h -1 v 2 h -1 v 2 h -1 v 3 h -1 v 2 h -1 v 2 h -1 v 2 h -1 v 3 h -1 v 2 h -1 v 2 h -1 v 2 h -1 v 3 h -1 v 2 h -1 v 2 h -1 v 2 h -1 v 3 h -1 v 2 h -1 v 2 h -1 v 2 h -1 v 3 h -1 v 2 h -1 v 3 h -1 v 3 h -1 v 2 h -1 v 3 h -1 v 2 h -1 v 3 h -1 v 3 h -1 v 2 h -1 v 3 h -1 v 2 h -1 v 3 h -1 v 3 h -1 v 2 h -1 v 3 h -1 v 2 h -1 v 3 h -1 v 4 h -1 v 3 h -1 v 3 h -1 v 3 h -1 v 3 h -1 v 3 h -1 v 3 h -1 v 3 h -1 v 3 h -1 v 3 h -1 v 3 h -1 v 3 h -1 v 3 h -1 v 3 h -1 v 4 h -1 v 4 h -1 v 3 h -1 v 4 h -1 v 3 h -1 v 4 h -1 v 4 h -1 v 3 h -1 v 4 h -1 v 4 h -1 v 3 h -1 v 4 h -1 v 4 h -1 v 5 h -1 v 4 h -1 v 5 h -1 v 4 h -1 v 5 h -1 v 4 h -1 v 5 h -1 v 5 h -1 v 4 h -1 v 5 h -1 v 6 h -1 v 6 h -1 v 6 h -1 v 6 h -1 v 6 h -1 v 6 h -1 v 6 H 9 v 7 H 8 v 8 H 7 v 9 H 6 v 8 H 5 v 9 H 4 v 9 H 3 v 14 H 2 v 15 H 1 v 15 H 0 v 79 h 1 v 23 h 1 v 12 h 1 v 12 h 1 v 12 h 1 v 10 h 1 v 7 h 1 v 7 h 1 v 8 h 1 v 7 h 1 v 8 h 1 v 7 h 1 v 5 h 1 v 5 h 1 v 6 h 1 v 5 h 1 v 5 h 1 v 6 h 1 v 5 h 1 v 6 h 1 v 4 h 1 v 4 h 1 v 4 h 1 v 5 h 1 v 4 h 1 v 4 h 1 v 4 h 1 v 5 h 1 v 4 h 1 v 4 h 1 v 4 h 1 v 3 h 1 v 4 h 1 v 3 h 1 v 4 h 1 v 3 h 1 v 4 h 1 v 3 h 1 v 4 h 1 v 3 h 1 v 4 h 1 v 3 h 1 v 3 h 1 v 3 h 1 v 3 h 1 v 3 h 1 v 3 h 1 v 3 h 1 v 3 h 1 v 3 h 1 v 3 h 1 v 3 h 1 v 3 h 1 v 3 h 1 v 3 h 1 v 3 h 1 v 2 h 1 v 3 h 1 v 3 h 1 v 2 h 1 v 3 h 1 v 2 h 1 v 3 h 1 v 2 h 1 v 3 h 1 v 2 h 1 v 3 h 1 v 3 h 1 v 2 h 1 v 3 h 1 v 2 h 1 v 3 h 1 v 2 h 1 v 3 h 1 v 2 h 1 v 2 h 1 v 2 h 1 v 3 h 1 v 2 h 1 v 2 h 1 v 2 h 1 v 2 h 1 v 3 h 1 v 2 h 1 v 2 h 1 v 2 h 1 v 2 h 1 v 3 h 1 v 2 h 1 v 2 h 1 v 2 h 1 v 2 h 1 v 3 h 1 v 2 h 1 v 2 h 1 v 2 h 1 v 2 h 1 v 1 h 1 v 2 h 1 v 2 h 1 v 2 h 1 v 2 h 1 v 2 h 1 v 2 h 1 v 2 h 1 v 2 h 1 v 2 h 1 v 2 h 1 v 2 h 1 v 2 h 1 v 2 h 1 v 2 h 1 v 2 h 1 v 2 h 1 v 1 h 1 v 2 h 1 v 2 h 1 v 2 h 1 v 1 h 1 v 2 h 1 v 2 h 1 v 2 h 1 v 1 h 1 v 2 h 1 v 2 h 1 v 1 h 1 v 2 h 1 v 2 h 1 v 2 h 1 v 1 h 1 v 2 h 1 v 2 h 1 v 2 h 1 v 1 h 1 v 2 h 1 v 2 h 1 v 1 h 1 v 2 h 1 v 2 h 1 v 1 h 1 v 2 h 1 v 1 h 1 v 2 h 1 v 1 h 1 v 2 h 1 v 2 h 1 v 1 h 1 v 2 h 1 v 1 h 1 v 2 h 1 v 1 h 1 v 2 h 1 v 1 h 1 v 2 h 1 v 2 h 1 v 1 h 1 v 2 h 1 v 1 h 1 v 2 h 1 v 1 h 1 v 2 h 1 v 1 h 1 v 2 h 1 v 1 h 1 v 2 h 1 v 1 h 1 v 1 h 1 v 2 h 1 v 1 h 1 v 2 h 1 v 1 h 1 v 1 h 1 v 2 h 1 v 1 h 1 v 2 h 1 v 1 h 1 v 1 h 1 v 2 h 1 v 1 h 1 v 2 h 1 v 1 h 1 v 1 h 1 v 2 h 1 v 1 h 1 v 2 h 1 v 1 h 1 v 1 h 1 v 2 h 1 v 1 h 1 v 1 h 1 v 2 h 1 v 1 h 1 v 1 h 1 v 1 h 1 v 2 h 1 v 1 h 1 v 1 h 1 v 2 h 1 v 1 h 1 v 1 h 1 v 1 h 1 v 2 h 1 v 1 h 1 v 1 h 1 v 1 h 1 v 2 h 1 v 1 h 1 v 1 h 1 v 2 h 1 v 1 h 1 v 1 h 1 v 1 h 1 v 2 h 1 v 1 h 1 v 1 h 1 v 1 h 1 v 1 h 1 v 2 h 1 v 1 h 1 v 1 h 1 v 1 h 1 v 1 h 1 v 1 h 1 v 2 h 1 v 1 h 1 v 1 h 1 v 1 h 1 v 1 h 1 v 1 h 1 v 1 h 1 v 2 h 1 v 1 h 1 v 1 h 1 v 1 h 1 v 1 h 1 v 1 h 1 v 2 h 1 v 1 h 1 v 1 h 1 v 1 h 1 v 1 h 1 v 1 h 1 v 2 h 1 v 1 h 1 v 1 h 1 v 1 h 1 v 1 h 1 v 1 h 1 v 1 h 1 v 1 h 1 v 1 h 1 v 1 h 1 v 1 h 1 v 1 h 1 v 1 h 1 v 1 h 1 v 1 h 1 v 1 h 1 v 1 h 1 v 1 h 1 v 2 h 1 v 1 h 1 v 1 h 1 v 1 h 1 v 1 h 1 v 1 h 1 v 1 h 1 v 1 h 1 v 1 h 1 v 1 h 1 v 1 h 1 v 1 h 1 v 1 h 1 v 1 h 1 v 1 h 1 v 1 h 1 v 1 h 1 v 1 h 1 v 1 h 1 v 1 h 1 v 1 h 1 v 1 h 1 v 1 h 1 v 1 h 1 v 1 h 1 v 1 h 1 v 1 h 1 v 1 h 1 v 1 h 1 v 1 h 1 v 1 h 2 v 1 h 1 v 1 h 1 v 1 h 1 v 1 h 1 v 1 h 1 v 1 h 1 v 1 h 1 v 1 h 1 v 1 h 1 v 1 h 1 v 1 h 1 v 1 h 1 v 1 h 1 v 1 h 1 v 1 h 1 v 1 h 1 v 1 h 2 v 1 h 1 v 1 h 1 v 1 h 1 v 1 h 1 v 1 h 1 v 1 h 2 v 1 h 1 v 1 h 1 v 1 h 1 v 1 h 1 v 1 h 1 v 1 h 1 v 1 h 2 v 1 h 1 v 1 h 1 v 1 h 1 v 1 h 1 v 1 h 1 v 1 h 2 v 1 h 1 v 1 h 1 v 1 h 1 v 1 h 1 v 1 h 1 v 1 h 1 v 1 h 2 v 1 h 1 v 1 h 1 v 1 h 1 v 1 h 2 v 1 h 1 v 1 h 1 v 1 h 1 v 1 h 2 v 1 h 1 v 1 h 1 v 1 h 1 v 1 h 2 v 1 h 1 v 1 h 1 v 1 h 2 v 1 h 1 v 1 h 1 v 1 h 1 v 1 h 2 v 1 h 1 v 1 h 1 v 1 h 1 v 1 h 2 v 1 h 1 v 1 h 1 v 1 h 2 v 1 h 1 v 1 h 1 v 1 h 1 v 1 h 2 v 1 h 1 v 1 h 2 v 1 h 1 v 1 h 1 v 1 h 2 v 1 h 1 v 1 h 2 v 1 h 1 v 1 h 1 v 1 h 2 v 1 h 1 v 1 h 2 v 1 h 1 v 1 h 1 v 1 h 2 v 1 h 1 v 1 h 2 v 1 h 1 v 1 h 1 v 1 h 2 v 1 h 1 v 1 h 2 v 1 h 1 v 1 h 2 v 1 h 1 v 1 h 1 v 1 h 2 v 1 h 2 v 1 h 1 v 1 h 2 v 1 h 1 v 1 h 2 v 1 h 1 v 1 h 2 v 1 h 1 v 1 h 2 v 1 h 2 v 1 h 1 v 1 h 2 v 1 h 1 v 1 h 2 v 1 h 1 v 1 h 2 v 1 h 2 v 1 h 1 v 1 h 2 v 1 h 1 v 1 h 2 v 1 h 1 v 1 h 2 v 1 h 2 v 1 h 1 v 1 h 2 v 1 h 2 v 1 h 2 v 1 h 1 v 1 h 2 v 1 h 2 v 1 h 2 v 1 h 1 v 1 h 2 v 1 h 2 v 1 h 2 v 1 h 1 v 1 h 2 v 1 h 2 v 1 h 2 v 1 h 1 v 1 h 2 v 1 h 2 v 1 h 2 v 1 h 1 v 1 h 2 v 1 h 2 v 1 h 2 v 1 h 2 v 1 h 2 v 1 h 2 v 1 h 2 v 1 h 2 v 1 h 2 v 1 h 2 v 1 h 2 v 1 h 2 v 1 h 2 v 1 h 2 v 1 h 2 v 1 h 2 v 1 h 2 v 1 h 2 v 1 h 2 v 1 h 2 v 1 h 2 v 1 h 2 v 1 h 2 v 1 h 2 v 1 h 2 v 1 h 3 v 1 h 2 v 1 h 2 v 1 h 2 v 1 h 3 v 1 h 2 v 1 h 2 v 1 h 2 v 1 h 3 v 1 h 2 v 1 h 2 v 1 h 2 v 1 h 2 v 1 h 3 v 1 h 2 v 1 h 2 v 1 h 3 v 1 h 2 v 1 h 3 v 1 h 2 v 1 h 3 v 1 h 3 v 1 h 2 v 1 h 3 v 1 h 2 v 1 h 3 v 1 h 3 v 1 h 2 v 1 h 3 v 1 h 2 v 1 h 3 v 1 h 3 v 1 h 2 v 1 h 3 v 1 h 3 v 1 h 3 v 1 h 3 v 1 h 3 v 1 h 3 v 1 h 3 v 1 h 3 v 1 h 3 v 1 h 3 v 1 h 3 v 1 h 3 v 1 h 4 v 1 h 3 v 1 h 3 v 1 h 3 v 1 h 4 v 1 h 4 v 1 h 3 v 1 h 4 v 1 h 3 v 1 h 4 v 1 h 4 v 1 h 3 v 1 h 4 v 1 h 4 v 1 h 3 v 1 h 4 v 1 h 5 v 1 h 4 v 1 h 5 v 1 h 4 v 1 h 5 v 1 h 4 v 1 h 5 v 1 h 5 v 1 h 4 v 1 h 5 v 1 h 6 v 1 h 6 v 1 h 6 v 1 h 7 v 1 h 6 v 1 h 6 v 1 h 6 v 1 h 7 v 1 h 6 v 1 h 6 v 1 h 11 v 1 h 10 v 1 h 11 v 1 h 11 v 1 h 11 v 1 h 15 v 1 h 92 v -1 h 24 v -1 h 11 v -1 h 9 v -1 h 10 v -1 h 9 v -1 h 9 v -1 h 10 v -1 h 7 v -1 h 6 v -1 h 6 v -1 h 6 v -1 h 6 v -1 h 5 v -1 h 6 v -1 h 6 v -1 h 6 v -1 h 5 v -1 h 6 v -1 h 4 v -1 h 4 v -1 h 4 v -1 h 5 v -1 h 4 v -1 h 4 v -1 h 4 v -1 h 4 v -1 h 4 v -1 h 5 v -1 h 4 v -1 h 4 v -1 h 4 v -1 h 4 v -1 h 3 v -1 h 4 v -1 h 3 v -1 h 3 v -1 h 3 v -1 h 3 v -1 h 4 v -1 h 3 v -1 h 3 v -1 h 3 v -1 h 4 v -1 h 3 v -1 h 3 v -1 h 3 v -1 h 3 v -1 h 4 v -1 h 3 v -1 h 3 v -1 h 3 v -1 h 2 v -1 h 3 v -1 h 2 v -1 h 3 v -1 h 3 v -1 h 2 v -1 h 3 v -1 h 3 v -1 h 2 v -1 h 3 v -1 h 2 v -1 h 3 v -1 h 3 v -1 h 2 v -1 h 3 v -1 h 3 v -1 h 2 v -1 h 3 v -1 h 2 v -1 h 3 v -1 h 2 v -1 h 2 v -1 h 3 v -1 h 2 v -1 h 2 v -1 h 2 v -1 h 2 v -1 h 3 v -1 h 2 v -1 h 2 v -1 h 2 v -1 h 2 v -1 h 2 v -1 h 3 v -1 h 2 v -1 h 2 v -1 h 2 v -1 h 2 v -1 h 3 v -1 h 2 v -1 h 2 v -1 h 2 v -1 h 2 v -1 h 3 v -1 h 2 v -1 h 2 v -1 h 1 v -1 h 2 v -1 h 2 v -1 h 2 v -1 h 2 v -1 h 2 v -1 h 2 v -1 h 2 v -1 h 1 v -1 h 2 v -1 h 2 v -1 h 2 v -1 h 2 v -1 h 2 v -1 h 2 v -1 h 1 v -1 h 2 v -1 h 2 v -1 h 2 v -1 h 2 v -1 h 2 v -1 h 2 v -1 h 2 v -1 h 1 v -1 h 2 v -1 h 2 v -1 h 2 v -1 h 2 v -1 h 1 v -1 h 2 v -1 h 1 v -1 h 2 v -1 h 2 v -1 h 1 v -1 h 2 v -1 h 2 v -1 h 1 v -1 h 2 v -1 h 1 v -1 h 2 v -1 h 2 v -1 h 1 v -1 h 2 v -1 h 1 v -1 h 2 v -1 h 2 v -1 h 1 v -1 h 2 v -1 h 2 v -1 h 1 v -1 h 2 v -1 h 1 v -1 h 2 v -1 h 2 v -1 h 1 v -1 h 2 v -1 h 1 v -1 h 2 v -1 h 1 v -1 h 2 v -1 h 1 v -1 h 2 v -1 h 1 v -1 h 2 v -1 h 1 v -1 h 1 v -1 h 2 v -1 h 1 v -1 h 2 v -1 h 1 v -1 h 1 v -1 h 2 v -1 h 1 v -1 h 2 v -1 h 1 v -1 h 1 v -1 h 2 v -1 h 1 v -1 h 2 v -1 h 1 v -1 h 1 v -1 h 2 v -1 h 1 v -1 h 2 v -1 h 1 v -1 h 2 v -1 h 1 v -1 h 1 v -1 h 2 v -1 h 1 v -1 h 2 v -1 h 1 v -1 h 1 v -1 h 1 v -1 h 2 v -1 h 1 v -1 h 1 v -1 h 1 v -1 h 2 v -1 h 1 v -1 h 1 v -1 h 1 v -1 h 2 v -1 h 1 v -1 h 1 v -1 h 1 v -1 h 2 v -1 h 1 v -1 h 1 v -1 h 1 v -1 h 2 v -1 h 1 v -1 h 1 v -1 h 1 v -1 h 1 v -1 h 2 v -1 h 1 v -1 h 1 v -1 h 1 v -1 h 2 v -1 h 1 v -1 h 1 v -1 h 1 v -1 h 2 v -1 h 1 v -1 h 1 v -1 h 1 v -1 h 2 v -1 h 1 v -1 h 1 v -1 h 1 v -1 h 1 v -1 h 1 v -1 h 1 v -1 h 1 v -1 h 1 v -1 h 2 v -1 h 1 v -1 h 1 v -1 h 1 v -1 h 1 v -1 h 1 v -1 h 1 v -1 h 1 v -1 h 1 v -1 h 1 v -1 h 1 v -1 h 2 v -1 h 1 v -1 h 1 v -1 h 1 v -1 h 1 v -1 h 1 v -1 h 1 v -1 h 1 v -1 h 1 v -1 h 1 v -1 h 1 v -1 h 2 v -1 h 1 v -1 h 1 v -1 h 1 v -1 h 1 v -1 h 1 v -1 h 1 v -1 h 1 v -1 h 1 v -1 h 1 v -1 h 1 v -1 h 1 v -1 h 1 v -1 h 1 v -1 h 1 v -1 h 1 v -1 h 1 v -1 h 1 v -1 h 1 v -1 h 1 v -1 h 1 v -1 h 1 v -1 h 1 v -1 h 1 v -1 h 1 v -1 h 1 v -1 h 1 v -1 h 1 v -1 h 1 v -1 h 1 v -1 h 1 v -1 h 1 v -1 h 1 v -1 h 1 v -1 h 1 v -1 h 1 v -2 h 1 v -1 h 1 v -1 h 1 v -1 h 1 v -1 h 1 v -1 h 1 v -1 h 1 v -1 h 1 v -1 h 1 v -1 h 1 v -1 h 1 v -1 h 1 v -1 h 1 v -1 h 1 v -1 h 1 v -1 h 1 v -1 h 1 v -1 h 1 v -1 h -2 v 1 h -2 v 1 h -1 v 1 h -1 v 1 h -1 v 1 h -1 v 1 h -2 v 1 h -1 v 1 h -1 v 1 h -1 v 1 h -1 v 1 h -2 v 1 h -1 v 1 h -1 v 1 h -1 v 1 h -1 v 1 h -2 v 1 h -1 v 1 h -1 v 1 h -1 v 1 h -2 v 1 h -1 v 1 h -1 v 1 h -1 v 1 h -1 v 1 h -2 v 1 h -1 v 1 h -1 v 1 h -1 v 1 h -2 v 1 h -1 v 1 h -1 v 1 h -2 v 1 h -1 v 1 h -1 v 1 h -2 v 1 h -1 v 1 h -1 v 1 h -2 v 1 h -1 v 1 h -2 v 1 h -1 v 1 h -1 v 1 h -2 v 1 h -1 v 1 h -1 v 1 h -2 v 1 h -1 v 1 h -1 v 1 h -2 v 1 h -1 v 1 h -1 v 1 h -2 v 1 h -1 v 1 h -2 v 1 h -1 v 1 h -2 v 1 h -1 v 1 h -2 v 1 h -1 v 1 h -2 v 1 h -1 v 1 h -2 v 1 h -1 v 1 h -2 v 1 h -1 v 1 h -2 v 1 h -1 v 1 h -2 v 1 h -1 v 1 h -2 v 1 h -1 v 1 h -2 v 1 h -2 v 1 h -1 v 1 h -2 v 1 h -1 v 1 h -2 v 1 h -1 v 1 h -2 v 1 h -2 v 1 h -1 v 1 h -2 v 1 h -2 v 1 h -2 v 1 h -1 v 1 h -2 v 1 h -2 v 1 h -1 v 1 h -2 v 1 h -2 v 1 h -2 v 1 h -1 v 1 h -2 v 1 h -2 v 1 h -2 v 1 h -1 v 1 h -2 v 1 h -2 v 1 h -1 v 1 h -2 v 1 h -2 v 1 h -2 v 1 h -2 v 1 h -2 v 1 h -2 v 1 h -2 v 1 h -2 v 1 h -2 v 1 h -2 v 1 h -2 v 1 h -2 v 1 h -2 v 1 h -2 v 1 h -2 v 1 h -2 v 1 h -2 v 1 h -2 v 1 h -2 v 1 h -2 v 1 h -2 v 1 h -2 v 1 h -2 v 1 h -2 v 1 h -3 v 1 h -2 v 1 h -2 v 1 h -3 v 1 h -2 v 1 h -2 v 1 h -2 v 1 h -3 v 1 h -2 v 1 h -2 v 1 h -3 v 1 h -2 v 1 h -2 v 1 h -2 v 1 h -3 v 1 h -2 v 1 h -3 v 1 h -3 v 1 h -3 v 1 h -2 v 1 h -3 v 1 h -3 v 1 h -2 v 1 h -3 v 1 h -3 v 1 h -2 v 1 h -3 v 1 h -3 v 1 h -2 v 1 h -3 v 1 h -3 v 1 h -3 v 1 h -4 v 1 h -3 v 1 h -3 v 1 h -3 v 1 h -3 v 1 h -4 v 1 h -3 v 1 h -3 v 1 h -3 v 1 h -4 v 1 h -3 v 1 h -4 v 1 h -4 v 1 h -4 v 1 h -4 v 1 h -4 v 1 h -4 v 1 h -4 v 1 h -4 v 1 h -4 v 1 h -4 v 1 h -4 v 1 h -5 v 1 h -5 v 1 h -5 v 1 h -6 v 1 h -5 v 1 h -5 v 1 h -5 v 1 h -6 v 1 h -6 v 1 h -8 v 1 h -8 v 1 h -7 v 1 h -8 v 1 h -8 v 1 h -12 v 1 h -14 v 1 h -14 v 1 h -42 v 1 h -13 v -1 h -22 v -1 h -21 v -1 h -10 v -1 h -10 v -1 h -9 v -1 h -10 v -1 h -9 v -1 h -6 v -1 h -6 v -1 h -6 v -1 h -6 v -1 h -6 v -1 h -6 v -1 h -6 v -1 h -5 v -1 h -5 v -1 h -4 v -1 h -5 v -1 h -5 v -1 h -4 v -1 h -5 v -1 h -4 v -1 h -5 v -1 h -3 v -1 h -4 v -1 h -4 v -1 h -3 v -1 h -4 v -1 h -4 v -1 h -3 v -1 h -4 v -1 h -4 v -1 h -3 v -1 h -4 v -1 h -3 v -1 h -3 v -1 h -3 v -1 h -3 v -1 h -3 v -1 h -3 v -1 h -3 v -1 h -3 v -1 h -3 v -1 h -3 v -1 h -3 v -1 h -3 v -1 h -3 v -1 h -2 v -1 h -3 v -1 h -3 v -1 h -2 v -1 h -3 v -1 h -2 v -1 h -3 v -1 h -3 v -1 h -2 v -1 h -3 v -1 h -2 v -1 h -3 v -1 h -2 v -1 h -3 v -1 h -2 v -1 h -2 v -1 h -3 v -1 h -2 v -1 h -2 v -1 h -2 v -1 h -3 v -1 h -2 v -1 h -2 v -1 h -2 v -1 h -3 v -1 h -2 v -1 h -2 v -1 h -2 v -1 h -3 v -1 h -2 v -1 h -2 v -1 h -2 v -1 h -2 v -1 h -2 v -1 h -2 v -1 h -1 v -1 h -2 v -1 h -2 v -1 h -2 v -1 h -2 v -1 h -2 v -1 h -2 v -1 h -2 v -1 h -2 v -1 h -2 v -1 h -2 v -1 h -2 v -1 h -2 v -1 h -2 v -1 h -1 v -1 h -2 v -1 h -2 v -1 h -2 v -1 h -1 v -1 h -2 v -1 h -2 v -1 h -2 v -1 h -1 v -1 h -2 v -1 h -2 v -1 h -2 v -1 h -2 v -1 h -1 v -1 h -2 v -1 h -2 v -1 h -2 v -1 h -1 v -1 h -2 v -1 h -1 v -1 h -2 v -1 h -1 v -1 h -2 v -1 h -2 v -1 h -1 v -1 h -2 v -1 h -1 v -1 h -2 v -1 h -1 v -1 h -2 v -1 h -1 v -1 h -2 v -1 h -2 v -1 h -1 v -1 h -2 v -1 h -1 v -1 h -2 v -1 h -1 v -1 h -2 v -1 h -1 v -1 h -2 v -1 h -1 v -1 h -1 v -1 h -2 v -1 h -1 v -1 h -2 v -1 h -1 v -1 h -2 v -1 h -1 v -1 h -1 v -1 h -2 v -1 h -1 v -1 h -2 v -1 h -1 v -1 h -1 v -1 h -2 v -1 h -1 v -1 h -2 v -1 h -1 v -1 h -1 v -1 h -2 v -1 h -1 v -1 h -1 v -1 h -2 v -1 h -1 v -1 h -1 v -1 h -1 v -1 h -2 v -1 h -1 v -1 h -1 v -1 h -1 v -1 h -2 v -1 h -1 v -1 h -1 v -1 h -2 v -1 h -1 v -1 h -1 v -1 h -1 v -1 h -2 v -1 h -1 v -1 h -1 v -1 h -1 v -1 h -2 v -1 h -1 v -1 h -1 v -1 h -1 v -1 h -1 v -1 h -2 v -1 h -1 v -1 h -1 v -1 h -1 v -1 h -1 v -1 h -1 v -1 h -2 v -1 h -1 v -1 h -1 v -1 h -1 v -1 h -1 v -1 h -1 v -1 h -1 v -1 h -2 v -1 h -1 v -1 h -1 v -1 h -1 v -1 h -1 v -1 h -1 v -1 h -2 v -1 h -1 v -1 h -1 v -1 h -1 v -1 h -1 v -1 h -1 v -1 h -1 v -1 h -1 v -1 h -1 v -1 h -1 v -1 h -1 v -1 h -1 v -1 h -1 v -1 h -1 v -1 h -1 v -1 h -1 v -1 h -1 v -1 h -1 v -1 h -2 v -1 h -1 v -1 h -1 v -1 h -1 v -1 h -1 v -1 h -1 v -1 h -1 v -1 h -1 v -1 h -1 v -1 h -1 v -1 h -1 v -1 h -1 v -1 h -1 v -1 h -1 v -1 h -1 v -1 h -1 v -1 h -1 v -1 h -1 v -1 h -1 v -1 h -1 v -1 h -1 v -2 h -1 v -1 h -1 v -1 h -1 v -1 h -1 v -1 h -1 v -1 h -1 v -1 h -1 v -1 h -1 v -1 h -1 v -1 h -1 v -1 h -1 v -1 h -1 v -1 h -1 v -1 h -1 v -1 h -1 v -1 h -1 v -1 h -1 v -2 h -1 v -1 h -1 v -1 h -1 v -1 h -1 v -1 h -1 v -1 h -1 v -2 h -1 v -1 h -1 v -1 h -1 v -1 h -1 v -1 h -1 v -1 h -1 v -1 h -1 v -2 h -1 v -1 h -1 v -1 h -1 v -1 h -1 v -1 h -1 v -1 h -1 v -2 h -1 v -1 h -1 v -1 h -1 v -1 h -1 v -1 h -1 v -1 h -1 v -2 h -1 v -1 h -1 v -1 h -1 v -2 h -1 v -1 h -1 v -1 h -1 v -1 h -1 v -2 h -1 v -1 h -1 v -1 h -1 v -2 h -1 v -1 h -1 v -1 h -1 v -1 h -1 v -2 h -1 v -1 h -1 v -1 h -1 v -1 h -1 v -2 h -1 v -1 h -1 v -1 h -1 v -2 h -1 v -1 h -1 v -1 h -1 v -2 h -1 v -1 h -1 v -2 h -1 v -1 h -1 v -1 h -1 v -2 h -1 v -1 h -1 v -2 h -1 v -1 h -1 v -1 h -1 v -2 h -1 v -1 h -1 v -2 h -1 v -1 h -1 v -1 h -1 v -2 h -1 v -1 h -1 v -2 h -1 v -1 h -1 v -1 h -1 v -2 h -1 v -2 h -1 v -1 h -1 v -2 h -1 v -1 h -1 v -2 h -1 v -1 h -1 v -2 h -1 v -1 h -1 v -2 h -1 v -2 h -1 v -1 h -1 v -2 h -1 v -1 h -1 v -2 h -1 v -1 h -1 v -2 h -1 v -2 h -1 v -1 h -1 v -2 h -1 v -1 h -1 v -2 h -1 v -2 h -1 v -2 h -1 v -1 h -1 v -2 h -1 v -2 h -1 v -1 h -1 v -2 h -1 v -2 h -1 v -2 h -1 v -1 h -1 v -2 h -1 v -2 h -1 v -2 h -1 v -1 h -1 v -2 h -1 v -2 h -1 v -2 h -1 v -1 h -1 v -2 h -1 v -2 h -1 v -2 h -1 v -2 h -1 v -2 h -1 v -2 h -1 v -2 h -1 v -2 h -1 v -2 h -1 v -2 h -1 v -2 h -1 v -2 h -1 v -2 h -1 v -2 h -1 v -2 h -1 v -2 h -1 v -2 h -1 v -2 h -1 v -2 h -1 v -2 h -1 v -2 h -1 v -3 h -1 v -2 h -1 v -2 h -1 v -2 h -1 v -2 h -1 v -3 h -1 v -2 h -1 v -2 h -1 v -2 h -1 v -2 h -1 v -3 h -1 v -2 h -1 v -3 h -1 v -2 h -1 v -3 h -1 v -2 h -1 v -3 h -1 v -2 h -1 v -3 h -1 v -2 h -1 v -3 h -1 v -2 h -1 v -3 h -1 v -2 h -1 v -3 h -1 v -2 h -1 v -3 h -1 v -3 h -1 v -3 h -1 v -3 h -1 v -3 h -1 v -3 h -1 v -3 h -1 v -3 h -1 v -3 h -1 v -3 h -1 v -3 h -1 v -3 h -1 v -3 h -1 v -3 h -1 v -4 h -1 v -3 h -1 v -4 h -1 v -3 h -1 v -4 h -1 v -3 h -1 v -4 h -1 v -3 h -1 v -4 h -1 v -4 h -1 v -4 h -1 v -5 h -1 v -4 h -1 v -4 h -1 v -4 h -1 v -5 h -1 v -4 h -1 v -5 h -1 v -5 h -1 v -6 h -1 v -5 h -1 v -5 h -1 v -6 h -1 v -5 h -1 v -7 h -1 v -7 h -1 v -8 h -1 v -7 h -1 v -8 h -1 v -9 h -1 v -12 h -1 v -12 h -1 v -15 h -1 v -29 h -1 v -13 h 1 v -38 h 1 v -15 h 1 v -15 h 1 v -9 h 1 v -9 h 1 v -8 h 1 v -9 h 1 v -8 h 1 v -6 h 1 v -6 h 1 v -6 h 1 v -6 h 1 v -6 h 1 v -5 h 1 v -6 h 1 v -4 h 1 v -5 h 1 v -4 h 1 v -5 h 1 v -4 h 1 v -5 h 1 v -4 h 1 v -5 h 1 v -4 h 1 v -3 h 1 v -4 h 1 v -4 h 1 v -3 h 1 v -4 h 1 v -4 h 1 v -3 h 1 v -4 h 1 v -3 h 1 v -4 h 1 v -3 h 1 v -3 h 1 v -3 h 1 v -3 h 1 v -3 h 1 v -3 h 1 v -3 h 1 v -3 h 1 v -3 h 1 v -3 h 1 v -3 h 1 v -3 h 1 v -3 h 1 v -3 h 1 v -2 h 1 v -3 h 1 v -2 h 1 v -3 h 1 v -3 h 1 v -2 h 1 v -3 h 1 v -2 h 1 v -3 h 1 v -3 h 1 v -2 h 1 v -3 h 1 v -2 h 1 v -2 h 1 v -3 h 1 v -2 h 1 v -2 h 1 v -2 h 1 v -3 h 1 v -2 h 1 v -2 h 1 v -2 h 1 v -3 h 1 v -2 h 1 v -2 h 1 v -2 h 1 v -3 h 1 v -2 h 1 v -2 h 1 v -2 h 1 v -2 h 1 v -2 h 1 v -2 h 1 v -2 h 1 v -2 h 1 v -2 h 1 v -2 h 1 v -2 h 1 v -2 h 1 v -2 h 1 v -2 h 1 v -2 h 1 v -2 h 1 v -2 h 1 v -2 h 1 v -2 h 1 v -1 h 1 v -2 h 1 v -2 h 1 v -2 h 1 v -1 h 1 v -2 h 1 v -2 h 1 v -2 h 1 v -1 h 1 v -2 h 1 v -2 h 1 v -2 h 1 v -1 h 1 v -2 h 1 v -2 h 1 v -2 h 1 v -1 h 1 v -2 h 1 v -2 h 1 v -1 h 1 v -2 h 1 v -2 h 1 v -1 h 1 v -2 h 1 v -1 h 1 v -2 h 1 v -1 h 1 v -2 h 1 v -2 h 1 v -1 h 1 v -2 h 1 v -1 h 1 v -2 h 1 v -1 h 1 v -2 h 1 v -2 h 1 v -1 h 1 v -2 h 1 v -1 h 1 v -2 h 1 v -1 h 1 v -2 h 1 v -1 h 1 v -1 h 1 v -2 h 1 v -1 h 1 v -2 h 1 v -1 h 1 v -1 h 1 v -2 h 1 v -1 h 1 v -2 h 1 v -1 h 1 v -2 h 1 v -1 h 1 v -1 h 1 v -2 h 1 v -1 h 1 v -2 h 1 v -1 h 1 v -1 h 1 v -2 h 1 v -1 h 1 v -1 h 1 v -2 h 1 v -1 h 1 v -1 h 1 v -1 h 1 v -2 h 1 v -1 h 1 v -1 h 1 v -2 h 1 v -1 h 1 v -1 h 1 v -1 h 1 v -2 h 1 v -1 h 1 v -1 h 1 v -1 h 1 v -2 h 1 v -1 h 1 v -1 h 1 v -2 h 1 v -1 h 1 v -1 h 1 v -1 h 1 v -1 h 1 v -2 h 1 v -1 h 1 v -1 h 1 v -1 h 1 v -1 h 1 v -1 h 1 v -2 h 1 v -1 h 1 v -1 h 1 v -1 h 1 v -1 h 1 v -1 h 1 v -1 h 1 v -2 h 1 v -1 h 1 v -1 h 1 v -1 h 1 v -1 h 1 v -1 h 1 v -2 h 1 v -1 h 1 v -1 h 1 v -1 h 1 v -1 h 1 v -1 h 1 v -1 h 1 v -1 h 1 v -1 h 1 v -1 h 1 v -1 h 1 v -1 h 1 v -2 h 1 v -1 h 1 v -1 h 1 v -1 h 1 v -1 h 1 v -1 h 1 v -1 h 1 v -1 h 1 v -1 h 1 v -1 h 1 v -1 h 1 v -1 h 1 v -1 h 1 v -1 h 1 v -1 h 1 v -1 h 1 v -1 h 1 v -1 h 1 v -1 h 1 v -1 h 1 v -1 h 1 v -1 h 1 v -1 h 1 v -1 h 1 v -1 h 1 v -1 h 1 v -1 h 1 v -1 h 1 v -1 h 1 v -1 h 1 v -1 h 1 v -1 h 1 v -1 h 1 v -1 h 1 v -1 h 1 v -1 h 2 v -1 h 1 v -1 h 1 v -1 h 1 v -1 h 1 v -1 h 1 v -1 h 1 v -1 h 1 v -1 h 1 v -1 h 1 v -1 h 1 v -1 h 1 v -1 h 1 v -1 h 2 v -1 h 1 v -1 h 1 v -1 h 1 v -1 h 1 v -1 h 1 v -1 h 2 v -1 h 1 v -1 h 1 v -1 h 1 v -1 h 1 v -1 h 1 v -1 h 2 v -1 h 1 v -1 h 1 v -1 h 1 v -1 h 1 v -1 h 1 v -1 h 1 v -1 h 2 v -1 h 1 v -1 h 1 v -1 h 1 v -1 h 2 v -1 h 1 v -1 h 1 v -1 h 1 v -1 h 2 v -1 h 1 v -1 h 1 v -1 h 1 v -1 h 2 v -1 h 1 v -1 h 1 v -1 h 2 v -1 h 1 v -1 h 1 v -1 h 1 v -1 h 2 v -1 h 1 v -1 h 1 v -1 h 2 v -1 h 1 v -1 h 1 v -1 h 1 v -1 h 2 v -1 h 1 v -1 h 2 v -1 h 1 v -1 h 1 v -1 h 2 v -1 h 1 v -1 h 2 v -1 h 1 v -1 h 1 v -1 h 2 v -1 h 1 v -1 h 2 v -1 h 1 v -1 h 1 v -1 h 2 v -1 h 1 v -1 h 2 v -1 h 1 v -1 h 2 v -1 h 1 v -1 h 1 v -1 h 2 v -1 h 2 v -1 h 1 v -1 h 2 v -1 h 1 v -1 h 2 v -1 h 1 v -1 h 2 v -1 h 1 v -1 h 2 v -1 h 2 v -1 h 1 v -1 h 2 v -1 h 1 v -1 h 2 v -1 h 1 v -1 h 2 v -1 h 2 v -1 h 1 v -1 h 2 v -1 h 1 v -1 h 2 v -1 h 2 v -1 h 2 v -1 h 1 v -1 h 2 v -1 h 2 v -1 h 2 v -1 h 1 v -1 h 2 v -1 h 2 v -1 h 1 v -1 h 2 v -1 h 2 v -1 h 2 v -1 h 1 v -1 h 2 v -1 h 2 v -1 h 2 v -1 h 2 v -1 h 2 v -1 h 2 v -1 h 1 v -1 h 2 v -1 h 2 v -1 h 2 v -1 h 2 v -1 h 2 v -1 h 2 v -1 h 2 v -1 h 2 v -1 h 2 v -1 h 2 v -1 h 2 v -1 h 2 v -1 h 2 v -1 h 2 v -1 h 2 v -1 h 2 v -1 h 3 v -1 h 2 v -1 h 2 v -1 h 2 v -1 h 2 v -1 h 3 v -1 h 2 v -1 h 2 v -1 h 2 v -1 h 2 v -1 h 3 v -1 h 2 v -1 h 2 v -1 h 3 v -1 h 2 v -1 h 3 v -1 h 2 v -1 h 3 v -1 h 2 v -1 h 3 v -1 h 2 v -1 h 3 v -1 h 2 v -1 h 3 v -1 h 2 v -1 h 3 v -1 h 2 v -1 h 3 v -1 h 3 v -1 h 3 v -1 h 3 v -1 h 3 v -1 h 3 v -1 h 3 v -1 h 3 v -1 h 3 v -1 h 2 v -1 h 3 v -1 h 3 v -1 h 4 v -1 h 3 v -1 h 4 v -1 h 3 v -1 h 3 v -1 h 4 v -1 h 3 v -1 h 4 v -1 h 3 v -1 h 4 v -1 h 3 v -1 h 5 v -1 h 4 v -1 h 4 v -1 h 4 v -1 h 4 v -1 h 5 v -1 h 4 v -1 h 4 v -1 h 5 v -1 h 5 v -1 h 5 v -1 h 6 v -1 h 5 v -1 h 6 v -1 h 5 v -1 h 6 v -1 h 7 v -1 h 8 v -1 h 7 v -1 h 7 v -1 h 8 v -1 h 12 v -1 h 12 v -1 h 12 v -1 h 25 v -1 h 53 v 1 h 16 v 1 h 16 v 1 h 12 v 1 h 9 v 1 h 9 v 1 h 8 v 1 h 9 v 1 h 6 v 1 h 6 v 1 h 6 v 1 h 6 v 1 h 6 v 1 h 6 v 1 h 6 v 1 h 4 v 1 h 5 v 1 h 4 v 1 h 5 v 1 h 4 v 1 h 5 v 1 h 4 v 1 h 5 v 1 h 4 v 1 h 4 v 1 h 4 v 1 h 4 v 1 h 3 v 1 h 4 v 1 h 3 v 1 h 4 v 1 h 3 v 1 h 4 v 1 h 3 v 1 h 4 v 1 h 3 v 1 h 3 v 1 h 4 v 1 h 3 v 1 h 3 v 1 h 3 v 1 h 2 v 1 h 3 v 1 h 3 v 1 h 3 v 1 h 3 v 1 h 3 v 1 h 2 v 1 h 3 v 1 h 3 v 1 h 3 v 1 h 3 v 1 h 3 v 1 h 2 v 1 h 3 v 1 h 2 v 1 h 2 v 1 h 3 v 1 h 2 v 1 h 3 v 1 h 2 v 1 h 2 v 1 h 3 v 1 h 2 v 1 h 3 v 1 h 2 v 1 h 2 v 1 h 3 v 1 h 2 v 1 h 2 v 1 h 3 v 1 h 2 v 1 h 2 v 1 h 2 v 1 h 2 v 1 h 2 v 1 h 2 v 1 h 2 v 1 h 2 v 1 h 2 v 1 h 2 v 1 h 2 v 1 h 2 v 1 h 2 v 1 h 2 v 1 h 3 v 1 h 2 v 1 h 2 v 1 h 2 v 1 h 2 v 1 h 2 v 1 h 2 v 1 h 1 v 1 h 2 v 1 h 2 v 1 h 2 v 1 h 1 v 1 h 2 v 1 h 2 v 1 h 2 v 1 h 2 v 1 h 1 v 1 h 2 v 1 h 2 v 1 h 2 v 1 h 1 v 1 h 2 v 1 h 2 v 1 h 2 v 1 h 1 v 1 h 2 v 1 h 2 v 1 h 2 v 1 h 1 v 1 h 2 v 1 h 2 v 1 h 1 v 1 h 2 v 1 h 1 v 1 h 2 v 1 h 1 v 1 h 2 v 1 h 1 v 1 h 2 v 1 h 2 v 1 h 1 v 1 h 2 v 1 h 1 v 1 h 2 v 1 h 1 v 1 h 2 v 1 h 1 v 1 h 2 v 1 h 2 v 1 h 1 v 1 h 2 v 1 h 1 v 1 h 2 v 1 h 1 v 1 h 1 v 1 h 2 v 1 h 1 v 1 h 2 v 1 h 1 v 1 h 1 v 1 h 2 v 1 h 1 v 1 h 1 v 1 h 2 v 1 h 1 v 1 h 2 v 1 h 1 v 1 h 1 v 1 h 2 v 1 h 1 v 1 h 1 v 1 h 2 v 1 h 1 v 1 h 2 v 1 h 1 v 1 h 1 v 1 h 2 v 1 h 1 v 1 h 1 v 1 h 2 v 1 h 1 v 1 h 1 v 1 h 1 v 1 h 2 v 1 h 1 v 1 h 1 v 1 h 1 v 1 h 1 v 1 h 2 v 1 h 1 v 1 h 1 v 1 h 1 v 1 h 2 v 1 h 1 v 1 h 1 v 1 h 1 v 1 h 2 v 1 h 1 v 1 h 1 v 1 h 1 v 1 h 1 v 1 h 2 v 1 h 1 v 1 h 1 v 1 h 1 v 1 h 2 v 1 h 1 v 1 h 1 v 1 h 1 v 1 h 1 v 1 h 1 v 1 h 1 v 1 h 1 v 1 h 1 v 1 h 1 v 1 h 2 v 1 h 1 v 1 h 1 v 1 h 1 v 1 h 1 v 1 h 1 v 1 h 1 v 1 h 1 v 1 h 1 v 1 h 1 v 1 h 2 v 1 h 1 v 1 h 1 v 1 h 1 v 1 h 1 v 1 h 1 v 1 h 1 v 1 h 1 v 1 h 1 v 1 h 1 v 1 h 1 v 1 h 2 v 2 h 1 v 1 h 1 v 1 h 1 v 1 h 1 v 1 h 1 v 1 h 1 v 1 h 1 v 1 h 1 v 1 h 1 v 1 h 1 v 1 h 1 v 1 h 1 v 1 h 1 v 1 h 1 v 1 h 1 v 1 h 1 v 1 h 1 v 1 h 1 v 1 h 1 v 1 h 1 v 1 h 1 v 1 h 1 v 1 h 1 v 1 h 1 v 1 h 1 v 1 h 1 v 1 h 1 v 1 h 1 v 1 h 1 v 1 h 1 v 1 h 1 v 1 h 1 v 2 h 1 v 1 h 1 v 1 h 1 v 1 h 1 v 1 h 1 v 1 h 1 v 1 h 1 v 2 h 1 v 1 h 1 v 1 h 1 v 1 h 1 v 1 h 1 v 1 h 1 v 1 h 1 v 2 h 1 v 1 h 1 v 1 h 1 v 1 h 1 v 1 h 1 v 1 h 1 v 1 h 1 v 2 h 1 v 1 h 1 v 1 h 1 v 1 h 1 v 1 h 1 v 1 h 1 v 2 h 1 v 1 h 1 v 1 h 1 v 1 h 1 v 2 h 1 v 1 h 1 v 1 h 1 v 2 h 1 v 1 h 1 v 1 h 1 v 1 h 1 v 2 h 1 v 1 h 1 v 1 h 1 v 1 h 1 v 2 h 1 v 1 h 1 v 1 h 1 v 2 h 1 v 1 h 1 v 1 h 1 v 1 h 1 v 2 h 1 v 1 h 1 v 1 h 1 v 2 h 1 v 1 h 1 v 1 h 1 v 2 h 1 v 1 h 1 v 2 h 1 v 1 h 1 v 1 h 1 v 2 h 1 v 1 h 1 v 2 h 1 v 1 h 1 v 2 h 1 v 1 h 1 v 1 h 1 v 2 h 1 v 1 h 1 v 2 h 1 v 1 h 1 v 2 h 1 v 1 h 1 v 2 h 1 v 1 h 1 v 1 h 1 v 2 h 1 v 1 h 1 v 2 h 1 v 1 h 1 v 2 h 1 v 1 h 1 v 2 h 1 v 2 h 1 v 1 h 1 v 2 h 1 v 2 h 1 v 1 h 1 v 2 h 1 v 1 h 1 v 2 h 1 v 2 h 1 v 1 h 1 v 2 h 1 v 2 h 1 v 1 h 1 v 2 h 1 v 2 h 1 v 1 h 1 v 2 h 1 v 1 h 1 v 2 h 1 v 2 h 1 v 1 h 1 v 2 h 1 v 2 h 1 v 2 h 1 v 2 h 1 v 2 h 1 v 2 h 1 v 1 h 1 v 2 h 1 v 2 h 1 v 2 h 1 v 2 h 1 v 2 h 1 v 2 h 1 v 1 h 1 v 2 h 1 v 2 h 1 v 2 h 1 v 2 h 1 v 2 h 1 v 2 h 2 v -2 h -1 v -2 h -1 v -3 h -1 v -2 h -1 v -3 h -1 v -2 h -1 v -3 h -1 v -2 h -1 v -3 h -1 v -2 h -1 v -3 h -1 v -2 h -1 v -3 h -1 v -2 h -1 v -3 h -1 v -2 h -1 v -3 h -1 v -2 h -1 v -2 h -1 v -3 h -1 v -2 h -1 v -3 h -1 v -2 h -1 v -3 h -1 v -2 h -1 v -2 h -1 v -2 h -1 v -2 h -1 v -2 h -1 v -2 h -1 v -2 h -1 v -2 h -1 v -3 h -1 v -2 h -1 v -2 h -1 v -2 h -1 v -2 h -1 v -2 h -1 v -2 h -1 v -2 h -1 v -2 h -1 v -2 h -1 v -3 h -1 v -2 h -1 v -2 h -1 v -2 h -1 v -2 h -1 v -2 h -1 v -2 h -1 v -2 h -1 v -2 h -1 v -1 h -1 v -2 h -1 v -2 h -1 v -2 h -1 v -2 h -1 v -1 h -1 v -2 h -1 v -2 h -1 v -2 h -1 v -2 h -1 v -1 h -1 v -2 h -1 v -2 h -1 v -2 h -1 v -2 h -1 v -1 h -1 v -2 h -1 v -2 h -1 v -2 h -1 v -2 h -1 v -1 h -1 v -2 h -1 v -2 h -1 v -2 h -1 v -2 h -1 v -1 h -1 v -2 h -1 v -2 h -1 v -1 h -1 v -2 h -1 v -1 h -1 v -2 h -1 v -1 h -1 v -2 h -1 v -2 h -1 v -1 h -1 v -2 h -1 v -1 h -1 v -2 h -1 v -1 h -1 v -2 h -1 v -1 h -1 v -2 h -1 v -2 h -1 v -1 h -1 v -2 h -1 v -1 h -1 v -2 h -1 v -1 h -1 v -2 h -1 v -2 h -1 v -1 h -1 v -2 h -1 v -1 h -1 v -2 h -1 v -1 h -1 v -2 h -1 v -1 h -1 v -2 h -1 v -1 h -1 v -2 h -1 v -1 h -1 v -1 h -1 v -2 h -1 v -1 h -1 v -1 h -1 v -2 h -1 v -1 h -1 v -2 h -1 v -1 h -1 v -1 h -1 v -2 h -1 v -1 h -1 v -1 h -1 v -2 h -1 v -1 h -1 v -1 h -1 v -2 h -1 v -1 h -1 v -2 h -1 v -1 h -1 v -1 h -1 v -2 h -1 v -1 h -1 v -1 h -1 v -2 h -1 v -1 h -1 v -1 h -1 v -2 h -1 v -1 h -1 v -2 h -1 v -1 h -1 v -1 h -1 v -2 h -1 v -1 h -1 v -1 h -1 v -1 h -1 v -1 h -1 v -2 h -1 v -1 h -1 v -1 h -1 v -1 h -1 v -1 h -1 v -1 h -1 v -2 h -1 v -1 h -1 v -1 h -1 v -1 h -1 v -1 h -1 v -2 h -1 v -1 h -1 v -1 h -1 v -1 h -1 v -1 h -1 v -2 h -1 v -1 h -1 v -1 h -1 v -1 h -1 v -1 h -1 v -2 h -1 v -1 h -1 v -1 h -1 v -1 h -1 v -1 h -1 v -2 h -1 v -1 h -1 v -1 h -1 v -1 h -1 v -1 h -1 v -2 h -1 v -1 h -1 v -1 h -1 v -1 h -1 v -1 h -1 v -1 h -1 v -1 h -1 v -1 h -1 v -1 h -1 v -1 h -1 v -1 h -1 v -1 h -1 v -2 h -1 v -1 h -1 v -1 h -1 v -1 h -1 v -1 h -1 v -1 h -1 v -1 h -1 v -1 h -1 v -1 h -1 v -1 h -1 v -1 h -1 v -1 h -1 v -1 h -1 v -1 h -1 v -1 h -1 v -1 h -1 v -1 h -1 v -1 h -1 v -1 h -1 v -2 h -1 v -1 h -1 v -1 h -1 v -1 h -1 v -1 h -1 v -1 h -1 v -1 h -1 v -1 h -1 v -1 h -1 v -1 h -1 v -1 h -1 v -1 h -1 v -1 h -1 v -1 h -1 v -1 h -1 v -1 h -1 v -1 h -1 v -1 h -1 v -1 h -1 v -1 h -1 v -1 h -2 v -1 h -1 v -1 h -1 v -1 h -1 v -1 h -1 v -1 h -1 v -1 h -1 v -1 h -1 v -1 h -1 v -1 h -1 v -1 h -1 v -1 h -1 v -1 h -1 v -1 h -2 v -1 h -1 v -1 h -1 v -1 h -1 v -1 h -1 v -1 h -1 v -1 h -1 v -1 h -1 v -1 h -1 v -1 h -1 v -1 h -1 v -1 h -1 v -1 h -1 v -1 h -2 v -1 h -1 v -1 h -1 v -1 h -1 v -1 h -1 v -1 h -1 v -1 h -1 v -1 h -1 v -1 h -1 v -1 h -2 v -1 h -1 v -1 h -1 v -1 h -1 v -1 h -2 v -1 h -1 v -1 h -1 v -1 h -1 v -1 h -1 v -1 h -2 v -1 h -1 v -1 h -1 v -1 h -1 v -1 h -2 v -1 h -1 v -1 h -1 v -1 h -1 v -1 h -1 v -1 h -2 v -1 h -1 v -1 h -1 v -1 h -1 v -1 h -2 v -1 h -1 v -1 h -1 v -1 h -1 v -1 h -2 v -1 h -1 v -1 h -1 v -1 h -1 v -1 h -1 v -1 h -2 v -1 h -1 v -1 h -1 v -1 h -1 v -1 h -2 v -1 h -1 v -1 h -1 v -1 h -2 v -1 h -1 v -1 h -2 v -1 h -1 v -1 h -1 v -1 h -2 v -1 h -1 v -1 h -2 v -1 h -1 v -1 h -1 v -1 h -2 v -1 h -1 v -1 h -2 v -1 h -1 v -1 h -1 v -1 h -2 v -1 h -1 v -1 h -2 v -1 h -1 v -1 h -1 v -1 h -2 v -1 h -1 v -1 h -2 v -1 h -1 v -1 h -1 v -1 h -2 v -1 h -1 v -1 h -2 v -1 h -1 v -1 h -1 v -1 h -2 v -1 h -1 v -1 h -2 v -1 h -1 v -1 h -2 v -1 h -1 v -1 h -2 v -1 h -2 v -1 h -1 v -1 h -2 v -1 h -2 v -1 h -1 v -1 h -2 v -1 h -1 v -1 h -2 v -1 h -2 v -1 h -1 v -1 h -2 v -1 h -1 v -1 h -2 v -1 h -2 v -1 h -1 v -1 h -2 v -1 h -1 v -1 h -2 v -1 h -2 v -1 h -1 v -1 h -2 v -1 h -2 v -1 h -1 v -1 h -2 v -1 h -1 v -1 h -2 v -1 h -2 v -1 h -1 v -1 h -2 v -1 h -2 v -1 h -2 v -1 h -2 v -1 h -2 v -1 h -2 v -1 h -1 v -1 h -2 v -1 h -2 v -1 h -2 v -1 h -2 v -1 h -2 v -1 h -2 v -1 h -2 v -1 h -1 v -1 h -2 v -1 h -2 v -1 h -2 v -1 h -2 v -1 h -2 v -1 h -2 v -1 h -2 v -1 h -1 v -1 h -2 v -1 h -2 v -1 h -2 v -1 h -2 v -1 h -2 v -1 h -2 v -1 h -2 v -1 h -2 v -1 h -2 v -1 h -3 v -1 h -2 v -1 h -2 v -1 h -2 v -1 h -3 v -1 h -2 v -1 h -2 v -1 h -2 v -1 h -2 v -1 h -3 v -1 h -2 v -1 h -2 v -1 h -2 v -1 h -2 v -1 h -3 v -1 h -2 v -1 h -2 v -1 h -2 v -1 h -3 v -1 h -2 v -1 h -2 v -1 h -2 v -1 h -3 v -1 h -3 v -1 h -2 v -1 h -3 v -1 h -3 v -1 h -2 v -1 h -3 v -1 h -3 v -1 h -2 v -1 h -3 v -1 h -3 v -1 h -2 v -1 h -3 v -1 h -3 v -1 h -2 v -1 h -3 v -1 h -3 v -1 h -2 v -1 h -3 v -1 h -3 v -1 h -2 v -1 h -3 v -1 h -4 v -1 h -3 v -1 h -3 v -1 h -4 v -1 h -3 v -1 h -3 v -1 h -4 v -1 h -3 v -1 h -3 v -1 h -4 v -1 h -3 v -1 h -3 v -1 h -4 v -1 h -3 v -1 h -3 v -1 h -4 v -1 h -3 v -1 h -4 v -1 h -4 v -1 h -5 v -1 h -4 v -1 h -4 v -1 h -5 v -1 h -4 v -1 h -4 v -1 h -5 v -1 h -4 v -1 h -5 v -1 h -4 v -1 h -4 v -1 h -5 v -1 h -5 v -1 h -6 v -1 h -6 v -1 h -5 v -1 h -6 v -1 h -6 v -1 h -6 v -1 h -6 V 9 h -7 V 8 h -9 V 7 h -8 V 6 h -9 V 5 h -9 V 4 h -8 V 3 h -14 V 2 H 994 V 1 H 979 V 0" /></g></g></g><g
       id="g148"
       transform="scale(0.1)"
       style="fill:#84dd63;fill-opacity:1"><g
         clip-path="url(#clipPath152)"
         id="g150"
         style="fill:#84dd63;fill-opacity:1"><path
           inkscape:connector-curvature="0"
           id="path164"
           style="fill:#84dd63;fill-opacity:1;fill-rule:nonzero;stroke:none"
           d="m 1403.92,433.121 c -323.57,-62.902 -636.916,148.488 -699.783,472.055 -62.871,323.594 148.414,636.894 472.023,699.784 188.45,36.62 373.35,-19.91 507.39,-137.35 -161.31,179.21 -409.87,271.81 -663.84,222.46 C 634.664,1615.21 383.184,1242.38 458.043,857.32 532.859,472.25 905.723,220.801 1290.78,295.648 1544.72,345 1740.49,524 1822.99,750.57 1742.67,591.48 1592.4,469.781 1403.92,433.121" /></g></g><g
       id="g166"
       transform="scale(0.1)"
       style="fill:#84dd63;fill-opacity:1"><g
         clip-path="url(#clipPath170)"
         id="g168"
         style="fill:#84dd63;fill-opacity:1"><path
           inkscape:connector-curvature="0"
           id="path182"
           style="fill:#84dd63;fill-opacity:1;fill-rule:nonzero;stroke:none"
           d="m 1520.49,620.148 c -238.63,-46.347 -469.65,109.434 -516.01,348.082 -46.398,238.57 109.45,469.62 348.01,516 138.99,27.02 275.35,-14.65 374.23,-101.28 -119.02,132.16 -302.27,200.46 -489.55,164.04 C 953.266,1491.81 767.828,1216.89 823.004,932.938 878.191,649 1153.13,463.559 1437.03,518.738 1624.3,555.191 1768.68,687.148 1829.47,854.211 1770.26,736.91 1659.46,647.219 1520.49,620.148" /></g></g></g></svg>